<svg width="555" height="555" viewBox="0 0 555 555" fill="none" xmlns="http://www.w3.org/2000/svg"><g clip-path="url(#clip0)"><path d="M167.389 83.306H10.538v231.398h156.851V83.306z" fill="#fff"/><path d="M165.779 144.731v-4.745h-34.095v-57.8h-4.832v57.8H52.285v-57.8h-4.832v57.8H13.358v4.745h34.095v53.055H13.358v4.745h34.095v53.055H13.358v4.745h34.095v57.8h4.832v-57.8h74.567v57.8h4.832v-57.8h34.095v-4.745h-34.095v-53.055h34.095v-4.745h-34.095v-53.055h34.095zm-38.927 110.921H52.285v-53.055h74.567v53.055zm0-57.866H52.285v-53.055h74.567v53.055z" fill="url(#paint0_linear)"/><path d="M165.778 82.185H6.914v236.078H172.22V82.185h-6.443zM13.357 311.87V88.512h72.955V311.87H13.357zm152.421 0H92.756V88.512h73.022V311.87z" fill="url(#paint1_linear)"/><path d="M179.134 209.781H0v5.668h179.134v-5.668z" fill="url(#paint2_linear)"/><path d="M179.134 198.049H0v5.668h179.134v-5.668z" fill="url(#paint3_linear)"/><path d="M179.134 186.252H0v5.668h179.134v-5.668z" fill="url(#paint4_linear)"/><path d="M179.134 174.521H0v5.668h179.134v-5.668z" fill="url(#paint5_linear)"/><path d="M179.134 162.789H0v5.668h179.134v-5.668z" fill="url(#paint6_linear)"/><path d="M179.134 150.992H0v5.668h179.134v-5.668z" fill="url(#paint7_linear)"/><path d="M179.134 139.261H0v5.668h179.134v-5.668z" fill="url(#paint8_linear)"/><path d="M179.134 127.463H0v5.668h179.134v-5.668z" fill="url(#paint9_linear)"/><path d="M179.134 115.732H0v5.668h179.134v-5.668z" fill="url(#paint10_linear)"/><path d="M179.134 104.001H0v5.668h179.134v-5.668z" fill="url(#paint11_linear)"/><path d="M179.134 92.203H0v5.668h179.134v-5.668z" fill="url(#paint12_linear)"/><path d="M179.134 80.472H0v5.668h179.134v-5.668z" fill="url(#paint13_linear)"/><path d="M254.639 124.3c5.598 0 10.135-4.456 10.135-9.952 0-5.496-4.537-9.952-10.135-9.952-5.597 0-10.134 4.456-10.134 9.952 0 5.496 4.537 9.952 10.134 9.952z" fill="url(#paint14_linear)"/><path d="M255.582 0h-2.013v86.47h2.013V0z" fill="url(#paint15_linear)"/><path d="M262.965 80.01h-16.712V65.908c0-2.241 1.813-4.02 4.095-4.02h8.523c2.282 0 4.094 1.779 4.094 4.02V80.01z" fill="url(#paint16_linear)"/><path d="M284.643 114.546h-60.07s.068-41.983 30.002-41.983c30.001 0 30.068 41.983 30.068 41.983z" fill="url(#paint17_linear)"/><path opacity=".5" d="M209 509c101.068 0 183-6.492 183-14.5S310.068 480 209 480s-183 6.492-183 14.5S107.932 509 209 509z" fill="url(#paint18_radial)"/><path d="M496.857 236.737H362.691c-3.96 0-7.181-3.164-7.181-7.052v-88.381c0-3.23 2.684-5.932 6.04-5.932h136.515c3.289 0 6.04 2.637 6.04 5.932v88.381c-.067 3.888-3.288 7.052-7.248 7.052z" fill="url(#paint19_linear)"/><path d="M500.951 141.304v88.381c0 3.888-3.221 7.052-7.181 7.052H357.524c-3.96 0-7.182-3.164-7.182-7.052v-88.381c0-3.23 2.685-5.866 5.973-5.866h138.596c3.356 0 6.04 2.636 6.04 5.866z" fill="url(#paint20_linear)"/><path d="M495.45 141.106v82.186a.525.525 0 01-.537.527H356.384a.524.524 0 01-.537-.527v-82.186c0-.329.269-.527.537-.527h138.529c.268 0 .537.264.537.527z" fill="#fff"/><path d="M410.681 150.729H363.9v1.581h46.781v-1.581z" fill="url(#paint21_linear)"/><path d="M453.166 150.729h-22.149v1.581h22.149v-1.581z" fill="url(#paint22_linear)"/><path d="M428.402 150.729h-15.504v1.581h15.504v-1.581z" fill="url(#paint23_linear)"/><path d="M410.681 191.459H363.9v1.581h46.781v-1.581z" fill="url(#paint24_linear)"/><path d="M381.418 157.517H363.9v1.582h17.518v-1.582z" fill="url(#paint25_linear)"/><path d="M423.903 157.517h-7.517v1.582h7.517v-1.582z" fill="url(#paint26_linear)"/><path d="M413.771 157.517h-30.135v1.582h30.135v-1.582z" fill="url(#paint27_linear)"/><path d="M381.418 198.247H363.9v1.582h17.518v-1.582z" fill="url(#paint28_linear)"/><path d="M381.418 184.67H363.9v1.582h17.518v-1.582z" fill="url(#paint29_linear)"/><path d="M381.418 164.305H363.9v1.582h17.518v-1.582z" fill="url(#paint30_linear)"/><path d="M413.771 164.305h-30.135v1.582h30.135v-1.582z" fill="url(#paint31_linear)"/><path d="M423.907 233.178c1.965 0 3.557-1.564 3.557-3.493 0-1.929-1.592-3.493-3.557-3.493-1.964 0-3.557 1.564-3.557 3.493 0 1.929 1.593 3.493 3.557 3.493z" fill="url(#paint32_linear)"/><path d="M382.765 531.933c-2.349 0-3.959-2.307-3.02-4.482l34.095-80.67h14.363l-42.417 83.372c-.604 1.121-1.745 1.78-3.021 1.78z" fill="url(#paint33_linear)"/><path d="M486.124 531.933c2.349 0 3.959-2.307 3.02-4.482l-34.095-80.67h-14.363l42.417 83.372c.604 1.121 1.745 1.78 3.021 1.78z" fill="url(#paint34_linear)"/><path d="M435.454 516.049a2.798 2.798 0 002.819-2.702l2.416-63.93h-11.141l3.154 63.93c0 1.582 1.275 2.702 2.752 2.702z" fill="url(#paint35_linear)"/><path d="M513.441 434.72c-19.128-1.977-47.451-3.295-78.996-3.295-31.612 0-59.868 1.252-78.996 3.295h-25.303v6.13c0 5.206 46.713 9.424 104.366 9.424s104.366-4.218 104.366-9.424v-6.13h-25.437z" fill="url(#paint36_linear)"/><path d="M434.445 444.145c57.64 0 104.366-4.22 104.366-9.425 0-5.205-46.726-9.424-104.366-9.424s-104.366 4.219-104.366 9.424c0 5.205 46.726 9.425 104.366 9.425z" fill="url(#paint37_linear)"/><path d="M368.669 436.038l.067-6.129c0-.988.805-1.713 1.812-1.713l35.84.527c1.007 0 1.745.791 1.745 1.779l-.067 6.13c0 .988-.805 1.713-1.812 1.713l-35.84-.527c-1.007 0-1.812-.791-1.745-1.78z" fill="url(#paint38_linear)"/><path d="M371.084 433.138l.068-2.965c0-.659.604-1.253 1.275-1.253l32.149.462c.671 0 1.275.593 1.275 1.252l-.067 2.966c0 .659-.604 1.252-1.276 1.252l-32.148-.461c-.739 0-1.343-.593-1.276-1.253z" fill="#fff"/><path opacity=".5" d="M434.5 555c66.55 0 120.5-13.431 120.5-30 0-16.569-53.95-30-120.5-30S314 508.431 314 525c0 16.569 53.95 30 120.5 30z" fill="url(#paint39_radial)"/><g opacity=".1"><path opacity=".063" d="M309.141 161.142c4.631 0 8.457 3.691 8.457 8.304v45.344c0 4.547-3.759 8.304-8.457 8.304h-11.074l-11.343 11.204-11.409-11.204H264.24c-4.631 0-8.456-3.691-8.456-8.304v-45.41c0-4.547 3.758-8.304 8.456-8.304h44.901v.066z" fill="#EFEFEF"/><path opacity=".125" d="M309.14 161.274c4.497 0 8.188 3.625 8.188 8.04v45.344c0 4.416-3.691 8.041-8.188 8.041h-11.141l-11.276 11.072-11.276-11.072h-11.141c-4.497 0-8.188-3.625-8.188-8.041v-45.344c0-4.415 3.691-8.04 8.188-8.04h44.834z" fill="#DFDFDF"/><path opacity=".188" d="M309.142 161.471c4.363 0 7.92 3.493 7.92 7.777v45.344c0 4.284-3.557 7.777-7.92 7.777h-11.276l-11.141 10.941-11.141-10.941h-11.276c-4.362 0-7.92-3.493-7.92-7.777v-45.344c0-4.284 3.558-7.777 7.92-7.777h44.834z" fill="#CFCFCF"/><path opacity=".25" d="M309.14 161.669c4.228 0 7.651 3.361 7.651 7.513v45.344c0 4.152-3.423 7.513-7.651 7.513h-11.41l-11.007 10.809-11.007-10.809h-11.41c-4.228 0-7.651-3.361-7.651-7.513v-45.344c0-4.152 3.423-7.513 7.651-7.513h44.834z" fill="#BFBFBF"/><path opacity=".313" d="M309.138 161.867c4.027 0 7.383 3.229 7.383 7.249v45.344c0 3.955-3.289 7.25-7.383 7.25h-11.477l-10.94 10.743-10.94-10.743h-11.477c-4.027 0-7.383-3.229-7.383-7.25v-45.344c0-3.954 3.289-7.249 7.383-7.249h44.834z" fill="#AFAFAF"/><path opacity=".375" d="M309.14 161.999c3.893 0 7.114 3.097 7.114 6.986v45.343c0 3.823-3.154 6.987-7.114 6.987h-11.611l-10.806 10.61-10.806-10.61h-11.611c-3.893 0-7.114-3.098-7.114-6.987v-45.343c0-3.823 3.154-6.986 7.114-6.986h44.834z" fill="#9F9F9F"/><path opacity=".438" d="M309.139 162.196c3.758 0 6.778 3.032 6.778 6.657v45.344c0 3.69-3.087 6.656-6.778 6.656h-11.746l-10.671 10.479-10.672-10.479h-11.745c-3.759 0-6.779-3.032-6.779-6.656v-45.344c0-3.691 3.087-6.657 6.779-6.657h44.834z" fill="#8F8F8F"/><path opacity=".5" d="M309.141 162.394c3.624 0 6.51 2.9 6.51 6.393v45.344c0 3.559-2.953 6.393-6.51 6.393h-11.813l-10.604 10.413-10.605-10.413h-11.812c-3.624 0-6.51-2.9-6.51-6.393v-45.344c0-3.559 2.953-6.393 6.51-6.393h44.834z" fill="gray"/><path opacity=".563" d="M309.139 162.592c3.49 0 6.241 2.768 6.241 6.129v45.344c0 3.427-2.818 6.129-6.241 6.129h-11.947l-10.47 10.282-10.47-10.282h-11.947c-3.49 0-6.242-2.768-6.242-6.129v-45.344c0-3.427 2.819-6.129 6.242-6.129h44.834z" fill="#707070"/><path opacity=".625" d="M309.141 162.724c3.288 0 5.973 2.636 5.973 5.865v45.344c0 3.23-2.685 5.866-5.973 5.866H297.06l-10.336 10.215-10.336-10.149h-12.081c-3.289 0-5.974-2.637-5.974-5.866v-45.344c0-3.229 2.685-5.865 5.974-5.865h44.834v-.066z" fill="#606060"/><path opacity=".688" d="M309.139 162.921c3.154 0 5.705 2.505 5.705 5.602v45.344c0 3.098-2.551 5.602-5.705 5.602h-12.148l-10.269 10.084-10.269-10.084h-12.148c-3.154 0-5.705-2.504-5.705-5.602v-45.344c0-3.097 2.551-5.602 5.705-5.602h44.834z" fill="#505050"/><path opacity=".75" d="M309.141 163.119c3.02 0 5.436 2.373 5.436 5.338v45.344c0 2.966-2.416 5.339-5.436 5.339h-12.283l-10.134 9.952-10.135-9.952h-12.282c-3.02 0-5.436-2.373-5.436-5.339v-45.344c0-2.965 2.416-5.338 5.436-5.338h44.834z" fill="#404040"/><path opacity=".813" d="M309.139 163.317c2.886 0 5.168 2.306 5.168 5.074v45.344c0 2.834-2.349 5.075-5.168 5.075h-12.417l-10 9.82-10-9.82h-12.417c-2.886 0-5.168-2.307-5.168-5.075v-45.344c0-2.834 2.349-5.074 5.168-5.074h44.834z" fill="#303030"/><path opacity=".875" d="M309.141 163.448c2.685 0 4.899 2.175 4.899 4.812v45.343c0 2.637-2.214 4.812-4.899 4.812h-12.484l-9.933 9.754-9.933-9.754h-12.484c-2.684 0-4.899-2.175-4.899-4.812V168.26c0-2.637 2.215-4.812 4.899-4.812h44.834z" fill="#202020"/><path opacity=".938" d="M309.139 163.646c2.55 0 4.631 2.043 4.631 4.548v45.344c0 2.504-2.081 4.547-4.631 4.547h-12.618l-9.799 9.623-9.799-9.623h-12.618c-2.55 0-4.631-2.043-4.631-4.547v-45.344c0-2.505 2.081-4.548 4.631-4.548h44.834z" fill="#101010"/><path opacity=".1" d="M309.141 163.844h-44.834c-2.416 0-4.362 1.911-4.362 4.284v45.344c0 2.372 1.946 4.284 4.362 4.284h12.752l9.665 9.49 9.665-9.49h12.752c2.416 0 4.363-1.912 4.363-4.284v-45.344c0-2.373-1.947-4.284-4.363-4.284z" fill="#000"/></g><path d="M309.942 162.724h-46.445c-2.483 0-4.497 1.977-4.497 4.415v46.926c0 2.438 2.014 4.416 4.497 4.416h13.222l10.001 9.82 10-9.82h13.222c2.483 0 4.497-1.978 4.497-4.416v-46.926c0-2.438-2.014-4.415-4.497-4.415z" fill="#fff"/><path d="M300.147 178.08l-13.155-3.889c-.202-.066-.403-.066-.537 0L273.3 178.08a.992.992 0 00-.671.922v14.17c0 1.846.738 3.757 2.282 5.602 1.141 1.45 2.752 2.9 4.698 4.284 3.356 2.373 6.577 3.823 6.712 3.889.134.066.268.066.402.066.135 0 .269 0 .403-.066s3.423-1.516 6.712-3.889c1.946-1.384 3.557-2.834 4.698-4.284 1.476-1.911 2.282-3.756 2.282-5.602v-14.17a.933.933 0 00-.671-.922zm-14.766 16.74l-5.369-5.141 2.08-2.043 3.289 3.098 6.98-6.723 2.081 2.043-9.061 8.766z" fill="url(#paint40_linear)"/><g opacity=".1"><path opacity=".063" d="M446.329 48.244c4.631 0 8.457 3.69 8.457 8.304v45.344c0 4.547-3.759 8.304-8.457 8.304h-11.074L423.912 121.4l-11.41-11.204h-11.074c-4.631 0-8.457-3.691-8.457-8.304V56.548c0-4.548 3.759-8.304 8.457-8.304h44.901z" fill="#EFEFEF"/><path opacity=".125" d="M446.328 48.441c4.496 0 8.188 3.625 8.188 8.041v45.344c0 4.416-3.692 8.04-8.188 8.04h-11.142l-11.275 11.073-11.276-11.073h-11.141c-4.497 0-8.188-3.624-8.188-8.04v-45.41c0-4.416 3.691-8.04 8.188-8.04h44.834v.065z" fill="#DFDFDF"/><path opacity=".188" d="M446.33 48.573c4.362 0 7.919 3.493 7.919 7.777v45.344c0 4.284-3.557 7.777-7.919 7.777h-11.276l-11.141 10.941-11.142-10.941h-11.275c-4.363 0-7.92-3.493-7.92-7.777V56.35c0-4.284 3.557-7.777 7.92-7.777h44.834z" fill="#CFCFCF"/><path opacity=".25" d="M446.328 48.77c4.228 0 7.651 3.362 7.651 7.514v45.344c0 4.152-3.423 7.513-7.651 7.513h-11.41l-11.007 10.809-11.007-10.809h-11.41c-4.229 0-7.651-3.361-7.651-7.513V56.284c0-4.152 3.422-7.513 7.651-7.513h44.834z" fill="#BFBFBF"/><path opacity=".313" d="M446.326 48.969c4.027 0 7.383 3.23 7.383 7.25v45.343c0 3.955-3.289 7.25-7.383 7.25h-11.477l-10.94 10.743-10.872-10.809H401.56c-4.027 0-7.383-3.229-7.383-7.25V56.218c0-3.954 3.288-7.25 7.383-7.25h44.766z" fill="#AFAFAF"/><path opacity=".375" d="M446.328 49.166c3.893 0 7.114 3.098 7.114 6.986v45.344c0 3.823-3.154 6.986-7.114 6.986h-11.611l-10.806 10.611-10.806-10.611h-11.611c-3.893 0-7.114-3.097-7.114-6.986v-45.41c0-3.822 3.154-6.986 7.114-6.986h44.834v.066z" fill="#9F9F9F"/><path opacity=".438" d="M446.326 49.298c3.759 0 6.779 3.032 6.779 6.657v45.343c0 3.691-3.087 6.657-6.779 6.657h-11.745l-10.671 10.479-10.672-10.479h-11.745c-3.759 0-6.779-3.032-6.779-6.657V56.021c0-3.691 3.087-6.657 6.779-6.657h44.833v-.066z" fill="#8F8F8F"/><path opacity=".5" d="M446.328 49.496c3.625 0 6.511 2.9 6.511 6.393v45.344c0 3.559-2.953 6.393-6.511 6.393h-11.812l-10.604 10.413-10.605-10.413h-11.812c-3.625 0-6.511-2.9-6.511-6.393V55.955c0-3.56 2.954-6.393 6.511-6.393h44.833v-.066z" fill="gray"/><path opacity=".563" d="M446.326 49.694c3.49 0 6.242 2.768 6.242 6.129v45.344c0 3.427-2.819 6.129-6.242 6.129H434.38l-10.471 10.281-10.47-10.215h-11.946c-3.491 0-6.242-2.768-6.242-6.129v-45.41c0-3.427 2.819-6.13 6.242-6.13h44.833z" fill="#707070"/><path opacity=".625" d="M446.328 49.891c3.289 0 5.974 2.637 5.974 5.866v45.344c0 3.229-2.685 5.866-5.974 5.866h-12.081l-10.336 10.149-10.335-10.149h-12.081c-3.289 0-5.974-2.637-5.974-5.866V55.757c0-3.23 2.685-5.866 5.974-5.866h44.833z" fill="#606060"/><path opacity=".688" d="M446.327 50.023c3.154 0 5.704 2.505 5.704 5.602v45.344c0 3.098-2.55 5.602-5.704 5.602h-12.149l-10.268 10.084-10.269-10.084h-12.148c-3.155 0-5.705-2.504-5.705-5.602V55.691c0-3.098 2.55-5.602 5.705-5.602h44.834v-.066z" fill="#505050"/><path opacity=".75" d="M446.329 50.22c3.02 0 5.436 2.373 5.436 5.34v45.343c0 2.966-2.416 5.338-5.436 5.338h-12.283l-10.134 9.952-10.135-9.952h-12.282c-3.02 0-5.437-2.372-5.437-5.338V55.559c0-2.965 2.417-5.338 5.437-5.338h44.834z" fill="#404040"/><path opacity=".813" d="M446.327 50.419c2.886 0 5.168 2.306 5.168 5.074v45.344c0 2.834-2.349 5.075-5.168 5.075H433.91l-10 9.82-10.001-9.82h-12.416c-2.886 0-5.168-2.307-5.168-5.075V55.493c0-2.834 2.349-5.075 5.168-5.075h44.834z" fill="#303030"/><path opacity=".875" d="M446.329 50.616c2.684 0 4.899 2.175 4.899 4.812v45.343c0 2.637-2.215 4.811-4.899 4.811h-12.484l-9.933 9.755-9.933-9.755h-12.484c-2.685 0-4.9-2.174-4.9-4.811V55.428c0-2.637 2.215-4.812 4.9-4.812h44.834z" fill="#202020"/><path opacity=".938" d="M446.327 50.814c2.55 0 4.631 2.043 4.631 4.547v45.344c0 2.505-2.081 4.548-4.631 4.548h-12.618l-9.799 9.622-9.799-9.688h-12.618c-2.551 0-4.631-2.043-4.631-4.548V55.296c0-2.505 2.08-4.548 4.631-4.548h44.834v.066z" fill="#101010"/><path opacity=".1" d="M446.329 50.946h-44.834c-2.416 0-4.363 1.911-4.363 4.284v45.344c0 2.372 1.947 4.283 4.363 4.283h12.752l9.665 9.491 9.665-9.491h12.752c2.416 0 4.362-1.911 4.362-4.283V55.23c0-2.373-1.946-4.284-4.362-4.284z" fill="#000"/></g><path d="M447.129 49.825h-46.444c-2.484 0-4.497 1.978-4.497 4.416v46.926c0 2.438 2.013 4.415 4.497 4.415h13.222l10 9.821 10-9.821h13.222c2.484 0 4.497-1.977 4.497-4.415V54.241c0-2.438-2.013-4.416-4.497-4.416z" fill="#fff"/><path d="M437.331 65.182l-13.088-3.889c-.201-.066-.403-.066-.537 0l-13.155 3.889a.993.993 0 00-.671.922v14.17c0 1.846.738 3.757 2.282 5.602 1.141 1.45 2.752 2.9 4.698 4.284 3.356 2.373 6.578 3.823 6.712 3.889.134.066.268.066.403.066.134 0 .268 0 .402-.066.135-.066 3.423-1.516 6.712-3.889 1.946-1.384 3.557-2.834 4.698-4.284 1.477-1.911 2.282-3.756 2.282-5.602v-14.17c-.067-.395-.336-.79-.738-.922zm-14.766 16.74l-5.369-5.14 2.08-2.044 3.289 3.098 6.98-6.723 2.081 2.043-9.061 8.766z" fill="url(#paint41_linear)"/><g opacity=".1"><path opacity=".063" d="M496.862 311.607c4.631 0 8.457 3.69 8.457 8.304v45.344c0 4.547-3.759 8.304-8.457 8.304h-11.074l-11.343 11.204-11.41-11.204h-11.074c-4.631 0-8.457-3.691-8.457-8.304v-45.344c0-4.548 3.759-8.304 8.457-8.304h44.901z" fill="#EFEFEF"/><path opacity=".125" d="M496.861 311.804c4.496 0 8.188 3.625 8.188 8.041v45.344c0 4.415-3.692 8.04-8.188 8.04h-11.142l-11.275 11.007-11.276-11.073h-11.141c-4.497 0-8.188-3.624-8.188-8.04v-45.344c0-4.416 3.691-8.041 8.188-8.041h44.834v.066z" fill="#DFDFDF"/><path opacity=".188" d="M496.863 312.002c4.362 0 7.919 3.493 7.919 7.777v45.344c0 4.284-3.557 7.777-7.919 7.777h-11.276l-11.141 10.941-11.142-10.941h-11.275c-4.363 0-7.92-3.493-7.92-7.777v-45.344c0-4.284 3.557-7.777 7.92-7.777h44.834z" fill="#CFCFCF"/><path opacity=".25" d="M496.861 312.134c4.228 0 7.651 3.361 7.651 7.513v45.344c0 4.152-3.423 7.513-7.651 7.513h-11.41l-11.007 10.809-11.007-10.809h-11.41c-4.229 0-7.652-3.361-7.652-7.513v-45.344c0-4.152 3.423-7.513 7.652-7.513h44.834z" fill="#BFBFBF"/><path opacity=".313" d="M496.859 312.332c4.027 0 7.382 3.229 7.382 7.249v45.344c0 3.954-3.288 7.25-7.382 7.25h-11.477l-10.94 10.743-10.94-10.743h-11.477c-4.027 0-7.383-3.23-7.383-7.25v-45.344c0-3.954 3.289-7.249 7.383-7.249h44.834z" fill="#AFAFAF"/><path opacity=".375" d="M496.861 312.529c3.892 0 7.114 3.098 7.114 6.987v45.343c0 3.823-3.154 6.986-7.114 6.986H485.25l-10.806 10.611-10.806-10.611h-11.611c-3.893 0-7.114-3.097-7.114-6.986v-45.343c0-3.823 3.154-6.987 7.114-6.987h44.834z" fill="#9F9F9F"/><path opacity=".438" d="M496.859 312.727c3.759 0 6.779 3.032 6.779 6.657v45.343c0 3.691-3.087 6.657-6.779 6.657h-11.745l-10.672 10.479-10.671-10.413h-11.745c-3.759 0-6.779-3.032-6.779-6.657V319.45c0-3.691 3.087-6.657 6.779-6.657h44.833v-.066z" fill="#8F8F8F"/><path opacity=".5" d="M496.861 312.859c3.625 0 6.511 2.9 6.511 6.393v45.344c0 3.559-2.953 6.393-6.511 6.393h-11.812l-10.604 10.413-10.605-10.348h-11.812c-3.625 0-6.511-2.899-6.511-6.393v-45.343c0-3.559 2.953-6.393 6.511-6.393h44.833v-.066z" fill="gray"/><path opacity=".563" d="M496.859 313.057c3.49 0 6.242 2.768 6.242 6.129v45.344c0 3.427-2.819 6.129-6.242 6.129h-11.946l-10.471 10.281-10.47-10.281h-11.946c-3.491 0-6.242-2.768-6.242-6.129v-45.344c0-3.427 2.819-6.129 6.242-6.129h44.833z" fill="#707070"/><path opacity=".625" d="M496.861 313.254c3.289 0 5.974 2.637 5.974 5.866v45.344c0 3.229-2.685 5.866-5.974 5.866H484.78l-10.336 10.149-10.335-10.149h-12.081c-3.289 0-5.974-2.637-5.974-5.866V319.12c0-3.229 2.685-5.866 5.974-5.866h44.833z" fill="#606060"/><path opacity=".688" d="M496.859 313.452c3.155 0 5.705 2.504 5.705 5.602v45.344c0 3.098-2.55 5.602-5.705 5.602h-12.148l-10.268 10.084L464.174 370h-12.148c-3.155 0-5.705-2.504-5.705-5.602v-45.344c0-3.098 2.55-5.602 5.705-5.602h44.833z" fill="#505050"/><path opacity=".75" d="M496.861 313.584c3.021 0 5.437 2.372 5.437 5.338v45.344c0 2.966-2.416 5.338-5.437 5.338h-12.282l-10.134 10.018-10.135-9.952h-12.282c-3.021 0-5.437-2.372-5.437-5.338v-45.344c0-2.966 2.416-5.338 5.437-5.338h44.833v-.066z" fill="#404040"/><path opacity=".813" d="M496.86 313.781c2.886 0 5.168 2.307 5.168 5.075V364.2c0 2.834-2.349 5.075-5.168 5.075h-12.417l-10 9.82-10.001-9.82h-12.416c-2.886 0-5.168-2.307-5.168-5.075v-45.344c0-2.834 2.349-5.075 5.168-5.075h44.834z" fill="#303030"/><path opacity=".875" d="M496.862 313.979c2.684 0 4.899 2.175 4.899 4.811v45.344c0 2.637-2.215 4.811-4.899 4.811h-12.484l-9.933 9.755-9.933-9.755h-12.484c-2.685 0-4.9-2.174-4.9-4.811V318.79c0-2.636 2.215-4.811 4.9-4.811h44.834z" fill="#202020"/><path opacity=".938" d="M496.86 314.177c2.55 0 4.631 2.043 4.631 4.548v45.343c0 2.505-2.081 4.548-4.631 4.548h-12.618l-9.799 9.622-9.799-9.622h-12.618c-2.551 0-4.631-2.043-4.631-4.548v-45.343c0-2.505 2.08-4.548 4.631-4.548h44.834z" fill="#101010"/><path opacity=".1" d="M496.862 314.375h-44.834c-2.416 0-4.363 1.911-4.363 4.284v45.343c0 2.373 1.947 4.284 4.363 4.284h12.752l9.665 9.491 9.665-9.491h12.752c2.416 0 4.362-1.911 4.362-4.284v-45.343c0-2.373-1.946-4.284-4.362-4.284z" fill="#000"/></g><path d="M497.666 313.188h-46.445c-2.483 0-4.497 1.978-4.497 4.416v46.926c0 2.438 2.014 4.415 4.497 4.415h13.222l10 9.821 10.001-9.821h13.222c2.483 0 4.496-1.977 4.496-4.415v-46.926c0-2.438-2.013-4.416-4.496-4.416z" fill="#fff"/><path d="M487.87 328.545l-13.155-3.889c-.201-.066-.402-.066-.536 0l-13.155 3.889a.99.99 0 00-.671.922v14.17c0 1.846.738 3.757 2.281 5.602 1.141 1.45 2.752 2.9 4.699 4.284 3.355 2.373 6.577 3.823 6.711 3.889.135.066.269.066.403.066s.268 0 .403-.066c.134-.066 3.423-1.516 6.711-3.889 1.947-1.384 3.558-2.834 4.698-4.284 1.477-1.911 2.282-3.756 2.282-5.602v-14.17a.99.99 0 00-.671-.922zm-14.765 16.74l-5.37-5.141 2.081-2.043 3.289 3.098 6.98-6.723 2.08 2.043-9.06 8.766z" fill="url(#paint42_linear)"/><g opacity=".1"><path opacity=".063" d="M410.819 344.758c4.631 0 8.456 3.691 8.456 8.304v45.344c0 4.547-3.758 8.304-8.456 8.304h-11.074l-11.343 11.204-11.41-11.204h-11.074c-4.631 0-8.457-3.691-8.457-8.304v-45.344c0-4.547 3.759-8.304 8.457-8.304h44.901z" fill="#EFEFEF"/><path opacity=".125" d="M410.817 344.956c4.497 0 8.189 3.624 8.189 8.04v45.344c0 4.416-3.692 8.041-8.189 8.041h-11.141l-11.275 11.072-11.276-11.072h-11.141c-4.497 0-8.189-3.625-8.189-8.041v-45.344c0-4.416 3.692-8.04 8.189-8.04h44.833z" fill="#DFDFDF"/><path opacity=".188" d="M410.819 345.153c4.363 0 7.92 3.493 7.92 7.777v45.344c0 4.284-3.557 7.777-7.92 7.777h-11.275l-11.141 10.941-11.142-11.007h-11.275c-4.363 0-7.92-3.493-7.92-7.777v-45.344c0-4.284 3.557-7.777 7.92-7.777h44.833v.066z" fill="#CFCFCF"/><path opacity=".25" d="M410.817 345.285c4.229 0 7.652 3.361 7.652 7.513v45.344c0 4.152-3.423 7.513-7.652 7.513h-11.41L388.4 416.464l-11.007-10.809h-11.409c-4.229 0-7.652-3.361-7.652-7.513v-45.344c0-4.152 3.423-7.513 7.652-7.513h44.833z" fill="#BFBFBF"/><path opacity=".313" d="M410.815 345.483c4.027 0 7.383 3.229 7.383 7.249v45.344c0 3.955-3.288 7.25-7.383 7.25h-11.476l-10.94 10.743-10.94-10.743h-11.477c-4.027 0-7.383-3.23-7.383-7.25v-45.344c0-3.954 3.289-7.249 7.383-7.249h44.833z" fill="#AFAFAF"/><path opacity=".375" d="M410.817 345.68c3.893 0 7.115 3.098 7.115 6.986v45.344c0 3.823-3.155 6.986-7.115 6.986h-11.611l-10.805 10.611-10.806-10.611h-11.611c-3.893 0-7.115-3.097-7.115-6.986v-45.409c0-3.823 3.155-6.986 7.115-6.986h44.833v.065z" fill="#9F9F9F"/><path opacity=".438" d="M410.816 345.878c3.759 0 6.779 3.032 6.779 6.657v45.344c0 3.69-3.087 6.656-6.779 6.656h-11.745l-10.672 10.479-10.671-10.479h-11.746c-3.758 0-6.778-3.032-6.778-6.656v-45.344c0-3.691 3.087-6.657 6.778-6.657h44.834z" fill="#8F8F8F"/><path opacity=".5" d="M410.818 346.01c3.624 0 6.511 2.9 6.511 6.393v45.344c0 3.559-2.954 6.393-6.511 6.393h-11.812l-10.605 10.413-10.604-10.413h-11.813c-3.624 0-6.51-2.9-6.51-6.393v-45.344c0-3.559 2.953-6.393 6.51-6.393h44.834z" fill="gray"/><path opacity=".563" d="M410.816 346.208c3.49 0 6.242 2.768 6.242 6.129v45.344c0 3.427-2.819 6.129-6.242 6.129h-11.947l-10.47 10.282-10.47-10.282h-11.947c-3.49 0-6.242-2.768-6.242-6.129v-45.344c0-3.427 2.819-6.129 6.242-6.129h44.834z" fill="#707070"/><path opacity=".625" d="M410.818 346.406c3.289 0 5.973 2.636 5.973 5.865v45.344c0 3.229-2.684 5.866-5.973 5.866h-12.081l-10.336 10.149-10.336-10.149h-12.081c-3.288 0-5.973-2.637-5.973-5.866v-45.344c0-3.229 2.685-5.865 5.973-5.865h44.834z" fill="#606060"/><path opacity=".688" d="M410.816 346.603c3.155 0 5.705 2.505 5.705 5.602v45.344c0 3.098-2.55 5.602-5.705 5.602h-12.148l-10.269 10.084-10.268-10.084h-12.149c-3.154 0-5.704-2.504-5.704-5.602v-45.344c0-3.097 2.55-5.602 5.704-5.602h44.834z" fill="#505050"/><path opacity=".75" d="M410.818 346.801c3.021 0 5.437 2.373 5.437 5.338v45.344c0 2.966-2.416 5.339-5.437 5.339h-12.282l-10.135 9.951-10.134-9.951h-12.282c-3.021 0-5.437-2.373-5.437-5.339v-45.344c0-2.965 2.416-5.338 5.437-5.338h44.833z" fill="#404040"/><path opacity=".813" d="M410.816 346.933c2.886 0 5.168 2.306 5.168 5.075v45.343c0 2.834-2.349 5.075-5.168 5.075H398.4l-10 9.82-10.001-9.82h-12.416c-2.886 0-5.168-2.307-5.168-5.075v-45.343c0-2.834 2.349-5.075 5.168-5.075h44.833z" fill="#303030"/><path opacity=".875" d="M410.819 347.13c2.684 0 4.899 2.175 4.899 4.812v45.343c0 2.637-2.215 4.812-4.899 4.812h-12.484l-9.933 9.754-9.934-9.754h-12.483c-2.685 0-4.9-2.175-4.9-4.812v-45.343c0-2.637 2.215-4.812 4.9-4.812h44.834z" fill="#202020"/><path opacity=".938" d="M410.816 347.328c2.551 0 4.631 2.043 4.631 4.548v45.343c0 2.505-2.08 4.548-4.631 4.548h-12.618l-9.799 9.622-9.799-9.622h-12.617c-2.551 0-4.631-2.043-4.631-4.548v-45.343c0-2.505 2.08-4.548 4.631-4.548h44.833z" fill="#101010"/><path opacity=".1" d="M410.818 347.526h-44.833c-2.417 0-4.363 1.911-4.363 4.284v45.344c0 2.372 1.946 4.284 4.363 4.284h12.752l9.665 9.49 9.664-9.49h12.752c2.417 0 4.363-1.912 4.363-4.284V351.81c0-2.373-1.946-4.284-4.363-4.284z" fill="#000"/></g><path d="M411.623 346.34h-46.445c-2.483 0-4.497 1.977-4.497 4.415v46.926c0 2.438 2.014 4.416 4.497 4.416H378.4l10 9.82 10.001-9.82h13.222c2.483 0 4.496-1.978 4.496-4.416v-46.926c0-2.438-2.013-4.415-4.496-4.415z" fill="#fff"/><path d="M401.827 361.696l-13.155-3.889c-.201-.066-.402-.066-.536 0l-13.155 3.889a.992.992 0 00-.671.922v14.17c0 1.846.738 3.757 2.282 5.602 1.14 1.45 2.751 2.9 4.698 4.284 3.355 2.373 6.577 3.823 6.711 3.889.135.066.269.066.403.066s.268 0 .403-.066c.134-.066 3.423-1.516 6.711-3.889 1.947-1.384 3.558-2.834 4.698-4.284 1.477-1.911 2.282-3.756 2.282-5.602v-14.17a.992.992 0 00-.671-.922zm-14.765 16.74l-5.37-5.141 2.081-2.043 3.289 3.098 6.98-6.723 2.08 2.043-9.06 8.766z" fill="url(#paint43_linear)"/><path d="M495.12 409.874l8.792-10.545c.403-.528.336-1.253-.201-1.648s-1.275-.33-1.678.198l-8.792 10.545-10.672 12.852 1.812 1.449 10.739-12.851z" fill="url(#paint44_linear)"/><path d="M459.411 409.874l-8.792-10.545c-.403-.528-.336-1.253.201-1.648s1.275-.33 1.678.198l8.792 10.545 10.672 12.852-1.812 1.449-10.739-12.851z" fill="url(#paint45_linear)"/><path d="M459.949 435.907h-8.189c-.537 0-1.006-.462-1.006-.989v-1.45h10.201v1.45c0 .593-.469.989-1.006.989z" fill="url(#paint46_linear)"/><path d="M502.97 435.907h-8.188c-.537 0-1.007-.462-1.007-.989v-1.45h10.202v1.45c0 .593-.47.989-1.007.989z" fill="url(#paint47_linear)"/><path d="M506.327 433.534h-58.123c-1.745 0-3.155-1.384-3.155-3.097v-8.964c0-1.713 1.41-3.163 3.222-3.163h58.123c1.745 0 3.221 1.384 3.221 3.163v8.898a3.252 3.252 0 01-3.288 3.163z" fill="url(#paint48_linear)"/><path d="M452.9 425.955c0 .593-.537 1.12-1.141 1.12s-1.141-.527-1.141-1.12c0-.593.537-1.121 1.141-1.121s1.141.462 1.141 1.121zm5.641 0c0 .593-.537 1.12-1.141 1.12s-1.141-.527-1.141-1.12c0-.593.537-1.121 1.141-1.121s1.141.462 1.141 1.121zm5.705 0c0 .593-.537 1.12-1.141 1.12s-1.141-.527-1.141-1.12c0-.593.537-1.121 1.141-1.121s1.141.462 1.141 1.121zm5.636 0c0 .593-.537 1.12-1.141 1.12s-1.141-.527-1.141-1.12c0-.593.537-1.121 1.141-1.121.672 0 1.141.462 1.141 1.121zm5.705 0c0 .593-.537 1.12-1.141 1.12s-1.141-.527-1.141-1.12c0-.593.537-1.121 1.141-1.121s1.141.462 1.141 1.121zm5.636 0c0 .593-.537 1.12-1.141 1.12s-1.141-.527-1.141-1.12c0-.593.537-1.121 1.141-1.121.672 0 1.141.462 1.141 1.121zm5.709 0c0 .593-.537 1.12-1.141 1.12s-1.141-.527-1.141-1.12c0-.593.537-1.121 1.141-1.121s1.141.462 1.141 1.121zm5.704 0c0 .593-.537 1.12-1.141 1.12s-1.141-.527-1.141-1.12c0-.593.537-1.121 1.141-1.121s1.141.462 1.141 1.121z" fill="#fff"/><path d="M498.273 425.955c0 .593-.537 1.12-1.141 1.12s-1.141-.527-1.141-1.12c0-.593.537-1.121 1.141-1.121s1.141.462 1.141 1.121z" fill="url(#paint49_linear)"/><path d="M503.977 425.955c0 .593-.537 1.12-1.141 1.12s-1.141-.527-1.141-1.12c0-.593.537-1.121 1.141-1.121s1.141.462 1.141 1.121z" fill="url(#paint50_linear)"/><path opacity=".12" d="M190.3 531.933c90.74 0 164.3-7.173 164.3-16.021s-73.56-16.02-164.3-16.02c-90.74 0-164.3 7.172-164.3 16.02 0 8.848 73.56 16.021 164.3 16.021z" fill="url(#paint51_radial)"/><path d="M155.3 288.012l25.7 37.5c2.3 3.3 6.1 5.2 10.1 5l39.8-5.6-1.6-10.4-36.8-.8-22.5-36c-2.5-3.8-7.3-5.2-11.4-3.3-5 2.4-6.7 9-3.3 13.6z" fill="url(#paint52_linear)"/><path d="M221.1 452.412c-.2.4-6.5 17.3-6.5 17.3s-9.2-3.1-9-3.5c.2-.4 3.8-21.6 3.8-21.6l11.7 7.8z" fill="url(#paint53_linear)"/><path d="M216.3 467.412c-.2.7-1.9 5.8-1.9 5.8s1.1 5.8 2.9 10.8c1.8 5 4.8 11.1 3.9 14.5-.7 2.5-3.3 2.4-3.3 2.4s-18.1-24.7-17.7-26.9c.5-3.1 3.1-6.4 3.1-6.4l1.7-4.2s2-.5 5.4.8c3.4 1.3 5.9 3.2 5.9 3.2z" fill="url(#paint54_linear)"/><path d="M200.9 472.712c-2.3 1.8.8 7.5 4 13.6 3.9 7.4 10 17.6 14.9 14.2 3.6-2.5-5.8-8.1-10.7-21.2-2-5.6-5.8-8.4-8.2-6.6z" fill="url(#paint55_linear)"/><path d="M191.1 451.512c-.1.4-2.5 18.3-2.5 18.3s-9.6-1-9.6-1.4c.1-.4-1.1-21.9-1.1-21.9l13.2 5z" fill="url(#paint56_linear)"/><path d="M189.7 467.212c0 .8-.5 6.1-.5 6.1s2.4 5.4 5.3 9.9 7.2 9.7 7 13.3c-.1 2.6-2.7 3.1-2.7 3.1s-23.1-20.1-23.3-22.3c-.2-3.2 1.6-7 1.6-7l.7-4.5s1.9-.9 5.5-.5 6.4 1.9 6.4 1.9z" fill="url(#paint57_linear)"/><path d="M175.9 475.712c-1.8 2.2 2.4 7.2 6.9 12.3 5.4 6.3 13.6 14.9 17.7 10.5 3-3.2-7.5-6.6-15.1-18.3-3.2-4.8-7.6-6.8-9.5-4.5z" fill="url(#paint58_linear)"/><path d="M84.6 287.512c-3.1 5.1-2.6 11 1.1 13.2 3.7 2.2 9.2-.1 12.2-5.2 3.1-5.1 2.6-11-1.1-13.2-3.7-2.2-9.2.1-12.2 5.2z" fill="url(#paint59_linear)"/><path d="M72 302.912c4.2 6.6 11.4 9.5 16.2 6.5 4.7-3 5.2-10.8 1-17.4-4.2-6.6-11.4-9.5-16.2-6.5-4.8 3.1-5.2 10.9-1 17.4z" fill="url(#paint60_linear)"/><path d="M78.5 307.712h-9.1v12.7c0 5 4.1 9.1 9.1 9.1h8.1c5 0 9.1-4.1 9.1-9.1v-12.7H78.5z" fill="url(#paint61_linear)"/><path d="M185.3 265.712s-2.4-4-.7-9.6 6.6-5.1 6.6-5.1l-8.8-12.2-8.3 8.9-3.6 12.7 14.8 5.3z" fill="url(#paint62_linear)"/><path d="M193.3 256.612c5.3 1.3 9.6-15 10.7-20.8-.1 0-11.9-4-13-2.8-.5.6-1.5 2-2.5 3.6l-2 .2.1-.4-.2-.1c.4-1.2-.2-2.5-1.3-3-1.3-.6-2.4-.5-3.2.3-.6.5-1 1.3-1.2 2.1l-.3 1.3c-.1 1.3.1 2.2.5 2.9l-.7.7 1.4.2s-2.3 7.8-.9 8.9c2.4 1.9 6.9 4.9 6.9 4.9 3.1 1.3 4.7 1.7 5.7 2z" fill="url(#paint63_linear)"/><path d="M350.8 337.512H62.5c-2.1 0-3.9-1.7-3.9-3.9 0-2.1 1.7-3.9 3.9-3.9h288.3c2.1 0 3.9 1.7 3.9 3.9 0 2.1-1.8 3.9-3.9 3.9z" fill="url(#paint64_linear)"/><path d="M180.5 358.212s-5-18.1.2-34.7 13.1-18.3 9.8-35.3c-3.3-17-.6-26.6-16.2-31.4-15.6-4.8-35.5 18.3-38.6 54.4-3.1 36.1 10.4 48.2 10.4 48.2l22.2 7.1 12.2-8.3z" fill="url(#paint65_linear)"/><path d="M180.5 358.212s-5-18.1.2-34.7 13.1-18.3 9.8-35.3c-3.3-17-.6-26.6-16.2-31.4-15.6-4.8-35.5 18.3-38.6 54.4-3.1 36.1 10.4 48.2 10.4 48.2l22.2 7.1 12.2-8.3z" fill="url(#paint66_radial)"/><path d="M165.3 383.812h57.6s-6.4 13.4-8.7 30c-2.3 16.6-7.8 39.9-7.8 39.9 3.8 3.3 8.8 5 13.8 4.8h.6s24.5-65.9 26.6-74.8c2.1-8.9.8-14.7-11.6-18.1-12.3-3.5-35.9-9.6-73.5-9.8-37.6-.2-10.4 24.9-10.4 24.9l13.4 3.1z" fill="url(#paint67_linear)"/><path d="M176.3 457.312s1.5-18.3 1-29.7c-.6-11.4-.2-33.5 1.2-38.2l1.3-4.6 25.1.8s-6.4 27.8-9.4 44.7c-3.1 17-4.5 28.8-4.5 28.8-4.8.7-9.7.2-14.2-1.7l-.5-.1z" fill="url(#paint68_linear)"/><path d="M211.4 515.912l3.1-.3-10.4-129.2-3.1.3 10.4 129.2z" fill="url(#paint69_linear)"/><path d="M240.8 318.512c21.594 0 39.1-17.505 39.1-39.1 0-21.594-17.506-39.1-39.1-39.1s-39.1 17.506-39.1 39.1c0 21.595 17.506 39.1 39.1 39.1z" fill="url(#paint70_radial)"/><path d="M240.1 318.512c21.594 0 39.1-17.505 39.1-39.1 0-21.594-17.506-39.1-39.1-39.1s-39.1 17.506-39.1 39.1c0 21.595 17.506 39.1 39.1 39.1z" fill="url(#paint71_radial)"/><path d="M125.3 515.912l10.4-129.2-3.1-.3-10.4 129.2 3.1.3z" fill="url(#paint72_linear)"/><path d="M210.2 477.812h-82.1v3.1h82.1v-3.1z" fill="url(#paint73_linear)"/><path d="M152.3 515.712l1.2-129.1-3.1-.1-1.2 129.2h3.1z" fill="url(#paint74_linear)"/><path d="M282.9 329.712h-38.3l9.8-35.1c.6-2.4 1.5-4 3.9-4h30.9c2.8 0 3.6 1.7 3 4.4l-9.3 34.7z" fill="url(#paint75_linear)"/><path d="M283 329.712l1.2-4.6h-53.8c-2.8 0-5.2 1.9-5.9 4.6H283z" fill="url(#paint76_linear)"/><path d="M283.4 329.712l.7-4.6h-32.4c-1.7 0-3.1 1.9-3.5 4.6h35.2z" fill="url(#paint77_linear)"/><path d="M289.1 293.312l-8 29.9h-33.2l8.5-29.9h32.7z" fill="url(#paint78_linear)"/><path d="M170.5 390.012H123s-9.9.8-13.7-11.4c-3.3-10.3 1-16.4 1.7-27.5 1-15.8-3.6-26.5-7-32.3-1.3-2.2.3-4.9 2.8-4.9h38.5c5.2 0 10.1 2.5 13.2 6.7 2.5 3.4 5.1 7.9 6.1 13 2.3 11.3.8 50.2.8 50.2h39.4c1.7 0 3.1 1.4 3.1 3.1 0 1.7-1.4 3.1-3.1 3.1h-34.3z" fill="url(#paint79_linear)"/><path d="M245.9 316.212s4.4.3 7.2-.2 2.6-.9 2.8-.5c.2.4.9 2.3-3.1 3.5-4 1.2-6 .7-6 .7l-.9-3.5z" fill="url(#paint80_linear)"/><path d="M230.6 323.712s4.9-1.4 7.4-1.6c2.5-.2 8.2 3.2 10.7 3.6 2.5.4 1.4-.6 5.8.3 1.6.3 2.9.5 3.9.6.9.1 1.5-1 .9-1.7-.9-1.1-2.3-2.7-4-4.4-3.4-3.5-5.5-5.1-11.5-4.8-6 .2-15.7.8-15.7.8l2.5 7.2z" fill="url(#paint81_linear)"/><path d="M167.2 276.112l19.4 41.1c1.7 3.6 5.2 6.1 9.2 6.6l40.2.8.1-10.5-36.2-6.7-16.4-39.1c-1.8-4.1-6.4-6.3-10.7-5.1-5.5 1.6-8.2 7.8-5.6 12.9z" fill="url(#paint82_linear)"/><path d="M195.3 214.712s0-.1 0 0c-2.3-.7-14.8-6.7-23.9 7-6.8 10.2 2.8 26.1 2.8 26.1 6.5-2.5 7.3-7.1 7.3-7.1s-2.1-1.4-.9-5.1c1.2-3.7 3.9-2.5 3.9-2.5 2.7.9 1.7 4.4 1.7 4.4l2.2.7 1.7-3.4c3.3 1 13.7 3.5 16.9 3.4 0 .1 3.9-16-11.7-23.5z" fill="url(#paint83_linear)"/><path d="M172.3 223.912a3.5 3.5 0 100-7 3.5 3.5 0 000 7z" fill="url(#paint84_linear)"/><path d="M171.4 221.712c-.9-3.4-4.3-5.7-7.8-5.1-1.7.3-3.4 1.3-4.8 3.6-3.9 6.7 2.1 14.4.8 25.1-1.3 10.7-7.5 18.1-14.1 20.8l-6.7 2.7s7.1.8 19.2-6.2c12.1-6.9 15.7-26.2 14.8-33.9-.5-3-1-5.3-1.4-7z" fill="url(#paint85_linear)"/><path d="M250.9 316.912c33.524 0 60.7-27.176 60.7-60.7 0-33.523-27.176-60.7-60.7-60.7s-60.7 27.177-60.7 60.7c0 33.524 27.176 60.7 60.7 60.7z" fill="url(#paint86_radial)"/><path d="M300.4 303.612l3 26.1h11.7l3-26.1h-17.7z" fill="url(#paint87_linear)"/><path d="M300.4 303.712l1.8-3.4h14.1l1.8 3.4h-17.7z" fill="url(#paint88_linear)"/><path d="M309.3 321.012a4.3 4.3 0 100-8.6 4.3 4.3 0 000 8.6z" fill="url(#paint89_linear)"/><path d="M317.8 304.912h-17.1c-.4 0-.8-.3-.8-.8 0-.4.3-.8.8-.8h17.1c.4 0 .8.3.8.8 0 .4-.4.8-.8.8z" fill="url(#paint90_linear)"/></g><defs><linearGradient id="paint0_linear" x1="89.744" y1="228.899" x2="90.32" y2="319.9" gradientUnits="userSpaceOnUse"><stop stop-color="#EDF3FF"/><stop offset="1" stop-color="#BDD4FF"/></linearGradient><linearGradient id="paint1_linear" x1="89.554" y1="242.026" x2="89.554" y2="146.845" gradientUnits="userSpaceOnUse"><stop stop-color="#EDF3FF"/><stop offset="1" stop-color="#BDD4FF"/></linearGradient><linearGradient id="paint2_linear" x1="84.336" y1="249.754" x2="85.874" y2="238.396" gradientUnits="userSpaceOnUse"><stop offset=".001" stop-color="#BDD4FF"/><stop offset=".999" stop-color="#EDF3FF"/></linearGradient><linearGradient id="paint3_linear" x1="82.716" y1="249.535" x2="84.254" y2="238.177" gradientUnits="userSpaceOnUse"><stop offset=".001" stop-color="#BDD4FF"/><stop offset=".999" stop-color="#EDF3FF"/></linearGradient><linearGradient id="paint4_linear" x1="81.095" y1="249.316" x2="82.634" y2="237.957" gradientUnits="userSpaceOnUse"><stop offset=".001" stop-color="#BDD4FF"/><stop offset=".999" stop-color="#EDF3FF"/></linearGradient><linearGradient id="paint5_linear" x1="79.475" y1="249.096" x2="81.013" y2="237.738" gradientUnits="userSpaceOnUse"><stop offset=".001" stop-color="#BDD4FF"/><stop offset=".999" stop-color="#EDF3FF"/></linearGradient><linearGradient id="paint6_linear" x1="77.854" y1="248.876" x2="79.393" y2="237.518" gradientUnits="userSpaceOnUse"><stop offset=".001" stop-color="#BDD4FF"/><stop offset=".999" stop-color="#EDF3FF"/></linearGradient><linearGradient id="paint7_linear" x1="76.234" y1="248.657" x2="77.772" y2="237.298" gradientUnits="userSpaceOnUse"><stop offset=".001" stop-color="#BDD4FF"/><stop offset=".999" stop-color="#EDF3FF"/></linearGradient><linearGradient id="paint8_linear" x1="74.614" y1="248.437" x2="76.152" y2="237.079" gradientUnits="userSpaceOnUse"><stop offset=".001" stop-color="#BDD4FF"/><stop offset=".999" stop-color="#EDF3FF"/></linearGradient><linearGradient id="paint9_linear" x1="72.993" y1="248.218" x2="74.532" y2="236.86" gradientUnits="userSpaceOnUse"><stop offset=".001" stop-color="#BDD4FF"/><stop offset=".999" stop-color="#EDF3FF"/></linearGradient><linearGradient id="paint10_linear" x1="71.373" y1="247.998" x2="72.911" y2="236.64" gradientUnits="userSpaceOnUse"><stop offset=".001" stop-color="#BDD4FF"/><stop offset=".999" stop-color="#EDF3FF"/></linearGradient><linearGradient id="paint11_linear" x1="69.752" y1="247.779" x2="71.291" y2="236.421" gradientUnits="userSpaceOnUse"><stop offset=".001" stop-color="#BDD4FF"/><stop offset=".999" stop-color="#EDF3FF"/></linearGradient><linearGradient id="paint12_linear" x1="68.132" y1="247.56" x2="69.671" y2="236.201" gradientUnits="userSpaceOnUse"><stop offset=".001" stop-color="#BDD4FF"/><stop offset=".999" stop-color="#EDF3FF"/></linearGradient><linearGradient id="paint13_linear" x1="66.512" y1="247.34" x2="68.05" y2="235.982" gradientUnits="userSpaceOnUse"><stop offset=".001" stop-color="#BDD4FF"/><stop offset=".999" stop-color="#EDF3FF"/></linearGradient><linearGradient id="paint14_linear" x1="254.807" y1="110.351" x2="254.218" y2="122.651" gradientUnits="userSpaceOnUse"><stop offset=".001" stop-color="#BDD4FF"/><stop offset=".999" stop-color="#EDF3FF"/></linearGradient><linearGradient id="paint15_linear" x1="255.702" y1="-6.692" x2="254.406" y2="54.871" gradientUnits="userSpaceOnUse"><stop stop-color="#fff"/><stop offset="1" stop-color="#BDD4FF"/></linearGradient><linearGradient id="paint16_linear" x1="253.612" y1="85.651" x2="254.782" y2="70.155" gradientUnits="userSpaceOnUse"><stop offset=".001" stop-color="#77A7FF"/><stop offset=".999" stop-color="#BDD4FF"/></linearGradient><linearGradient id="paint17_linear" x1="255.934" y1="68.535" x2="254.764" y2="110.645" gradientUnits="userSpaceOnUse"><stop stop-color="#F8F8FE"/><stop offset="1" stop-color="#BDD4FF"/></linearGradient><linearGradient id="paint90_linear" x1="309.253" y1="305.041" x2="309.253" y2="303.737" gradientUnits="userSpaceOnUse"><stop stop-color="#77A7FF"/><stop offset="1" stop-color="#BDD4FF"/></linearGradient><linearGradient id="paint19_linear" x1="412.627" y1="137.298" x2="436.138" y2="205.876" gradientUnits="userSpaceOnUse"><stop stop-color="#F8F8FE"/><stop offset="1" stop-color="#BDD4FF"/></linearGradient><linearGradient id="paint20_linear" x1="424.503" y1="138.451" x2="428.193" y2="296.694" gradientUnits="userSpaceOnUse"><stop stop-color="#EDF3FF"/><stop offset="1" stop-color="#BDD4FF"/></linearGradient><linearGradient id="paint21_linear" x1="456.877" y1="240.574" x2="478.689" y2="269.529" gradientUnits="userSpaceOnUse"><stop stop-color="#EDF3FF"/><stop offset="1" stop-color="#BDD4FF"/></linearGradient><linearGradient id="paint22_linear" x1="491.347" y1="214.607" x2="513.159" y2="243.563" gradientUnits="userSpaceOnUse"><stop stop-color="#EDF3FF"/><stop offset="1" stop-color="#BDD4FF"/></linearGradient><linearGradient id="paint23_linear" x1="477.874" y1="224.758" x2="499.686" y2="253.714" gradientUnits="userSpaceOnUse"><stop stop-color="#EDF3FF"/><stop offset="1" stop-color="#BDD4FF"/></linearGradient><linearGradient id="paint24_linear" x1="436.855" y1="255.656" x2="458.667" y2="284.612" gradientUnits="userSpaceOnUse"><stop stop-color="#EDF3FF"/><stop offset="1" stop-color="#BDD4FF"/></linearGradient><linearGradient id="paint25_linear" x1="444.336" y1="250.021" x2="466.148" y2="278.976" gradientUnits="userSpaceOnUse"><stop stop-color="#EDF3FF"/><stop offset="1" stop-color="#BDD4FF"/></linearGradient><linearGradient id="paint26_linear" x1="474.204" y1="227.521" x2="496.016" y2="256.477" gradientUnits="userSpaceOnUse"><stop stop-color="#EDF3FF"/><stop offset="1" stop-color="#BDD4FF"/></linearGradient><linearGradient id="paint27_linear" x1="460.731" y1="237.672" x2="482.543" y2="266.628" gradientUnits="userSpaceOnUse"><stop stop-color="#EDF3FF"/><stop offset="1" stop-color="#BDD4FF"/></linearGradient><linearGradient id="paint28_linear" x1="424.313" y1="265.105" x2="446.126" y2="294.06" gradientUnits="userSpaceOnUse"><stop stop-color="#EDF3FF"/><stop offset="1" stop-color="#BDD4FF"/></linearGradient><linearGradient id="paint29_linear" x1="430.987" y1="260.075" x2="452.799" y2="289.03" gradientUnits="userSpaceOnUse"><stop stop-color="#EDF3FF"/><stop offset="1" stop-color="#BDD4FF"/></linearGradient><linearGradient id="paint30_linear" x1="440.998" y1="252.534" x2="462.81" y2="281.489" gradientUnits="userSpaceOnUse"><stop stop-color="#EDF3FF"/><stop offset="1" stop-color="#BDD4FF"/></linearGradient><linearGradient id="paint31_linear" x1="457.394" y1="240.185" x2="479.206" y2="269.141" gradientUnits="userSpaceOnUse"><stop stop-color="#EDF3FF"/><stop offset="1" stop-color="#BDD4FF"/></linearGradient><linearGradient id="paint32_linear" x1="422.028" y1="245.253" x2="423.566" y2="232.199" gradientUnits="userSpaceOnUse"><stop stop-color="#F8F8FE"/><stop offset="1" stop-color="#BDD4FF"/></linearGradient><linearGradient id="paint33_linear" x1="403.831" y1="459.728" x2="403.831" y2="514.866" gradientUnits="userSpaceOnUse"><stop stop-color="#BDD4FF"/><stop offset="1" stop-color="#EDF3FF"/></linearGradient><linearGradient id="paint34_linear" x1="465.06" y1="459.728" x2="465.06" y2="514.866" gradientUnits="userSpaceOnUse"><stop stop-color="#BDD4FF"/><stop offset="1" stop-color="#EDF3FF"/></linearGradient><linearGradient id="paint35_linear" x1="435.126" y1="459.728" x2="435.126" y2="514.866" gradientUnits="userSpaceOnUse"><stop stop-color="#BDD4FF"/><stop offset="1" stop-color="#EDF3FF"/></linearGradient><linearGradient id="paint36_linear" x1="437.147" y1="457.249" x2="441.347" y2="488.541" gradientUnits="userSpaceOnUse"><stop stop-color="#EDF3FF"/><stop offset="1" stop-color="#BDD4FF"/></linearGradient><linearGradient id="paint37_linear" x1="434.446" y1="406.657" x2="434.446" y2="434.554" gradientUnits="userSpaceOnUse"><stop stop-color="#EDF3FF"/><stop offset="1" stop-color="#BDD4FF"/></linearGradient><linearGradient id="paint38_linear" x1="388.244" y1="439.846" x2="388.628" y2="422.918" gradientUnits="userSpaceOnUse"><stop offset=".001" stop-color="#77A7FF"/><stop offset=".999" stop-color="#BDD4FF"/></linearGradient><linearGradient id="paint89_linear" x1="311.498" y1="321.263" x2="307.306" y2="312.824" gradientUnits="userSpaceOnUse"><stop stop-color="#BDD4FF"/><stop offset="1" stop-color="#E7EFFF"/></linearGradient><linearGradient id="paint40_linear" x1="283.478" y1="206.567" x2="287.662" y2="179.499" gradientUnits="userSpaceOnUse"><stop stop-color="#27AE56"/><stop offset=".999" stop-color="#9ED9B0"/></linearGradient><linearGradient id="paint41_linear" x1="420.682" y1="93.686" x2="424.866" y2="66.618" gradientUnits="userSpaceOnUse"><stop stop-color="#27AE56"/><stop offset=".999" stop-color="#9ED9B0"/></linearGradient><linearGradient id="paint42_linear" x1="471.206" y1="357.064" x2="475.39" y2="329.996" gradientUnits="userSpaceOnUse"><stop stop-color="#27AE56"/><stop offset=".999" stop-color="#9ED9B0"/></linearGradient><linearGradient id="paint43_linear" x1="385.155" y1="390.22" x2="389.339" y2="363.152" gradientUnits="userSpaceOnUse"><stop stop-color="#27AE56"/><stop offset=".999" stop-color="#9ED9B0"/></linearGradient><linearGradient id="paint44_linear" x1="479.42" y1="426.895" x2="492.862" y2="410.082" gradientUnits="userSpaceOnUse"><stop offset=".001" stop-color="#77A7FF"/><stop offset=".999" stop-color="#BDD4FF"/></linearGradient><linearGradient id="paint45_linear" x1="475.286" y1="426.867" x2="461.844" y2="410.054" gradientUnits="userSpaceOnUse"><stop offset=".001" stop-color="#77A7FF"/><stop offset=".999" stop-color="#BDD4FF"/></linearGradient><linearGradient id="paint46_linear" x1="456.715" y1="427.826" x2="455.201" y2="439.894" gradientUnits="userSpaceOnUse"><stop offset=".001" stop-color="#77A7FF"/><stop offset=".999" stop-color="#BDD4FF"/></linearGradient><linearGradient id="paint47_linear" x1="499.301" y1="430.984" x2="497.786" y2="443.052" gradientUnits="userSpaceOnUse"><stop offset=".001" stop-color="#77A7FF"/><stop offset=".999" stop-color="#BDD4FF"/></linearGradient><linearGradient id="paint48_linear" x1="478.109" y1="455.126" x2="476.92" y2="411.208" gradientUnits="userSpaceOnUse"><stop offset=".001" stop-color="#77A7FF"/><stop offset=".999" stop-color="#BDD4FF"/></linearGradient><linearGradient id="paint49_linear" x1="496.467" y1="426.818" x2="497.849" y2="425.059" gradientUnits="userSpaceOnUse"><stop stop-color="#4687FF"/><stop offset=".999" stop-color="#77A7FF"/></linearGradient><linearGradient id="paint50_linear" x1="502.142" y1="426.818" x2="503.524" y2="425.059" gradientUnits="userSpaceOnUse"><stop stop-color="#4687FF"/><stop offset=".999" stop-color="#77A7FF"/></linearGradient><linearGradient id="paint88_linear" x1="309.253" y1="304.702" x2="309.253" y2="301.126" gradientUnits="userSpaceOnUse"><stop stop-color="#BDD4FF"/><stop offset="1" stop-color="#E7EFFF"/></linearGradient><linearGradient id="paint52_linear" x1="193.735" y1="309.376" x2="192.771" y2="304.942" gradientUnits="userSpaceOnUse"><stop stop-color="#F86E80"/><stop offset=".999" stop-color="#FFD4D8"/></linearGradient><linearGradient id="paint53_linear" x1="210.829" y1="456.688" x2="222.011" y2="460.479" gradientUnits="userSpaceOnUse"><stop stop-color="#BF8E80"/><stop offset="1" stop-color="#855D53"/></linearGradient><linearGradient id="paint54_linear" x1="204.019" y1="488.957" x2="208.903" y2="484.844" gradientUnits="userSpaceOnUse"><stop stop-color="#233B67"/><stop offset=".998" stop-color="#565378"/></linearGradient><linearGradient id="paint55_linear" x1="238.863" y1="465.221" x2="249.659" y2="457.124" gradientUnits="userSpaceOnUse"><stop stop-color="#233B67"/><stop offset=".998" stop-color="#565378"/></linearGradient><linearGradient id="paint56_linear" x1="182.7" y1="458.098" x2="192.725" y2="465.745" gradientUnits="userSpaceOnUse"><stop stop-color="#BF8E80"/><stop offset="1" stop-color="#855D53"/></linearGradient><linearGradient id="paint57_linear" x1="161.209" y1="466.489" x2="187.621" y2="479.984" gradientUnits="userSpaceOnUse"><stop stop-color="#233B67"/><stop offset=".998" stop-color="#565378"/></linearGradient><linearGradient id="paint58_linear" x1="193.266" y1="481.047" x2="201.46" y2="471.022" gradientUnits="userSpaceOnUse"><stop stop-color="#233B67"/><stop offset=".998" stop-color="#565378"/></linearGradient><linearGradient id="paint59_linear" x1="93.034" y1="281.299" x2="89.409" y2="301.854" gradientUnits="userSpaceOnUse"><stop stop-color="#AEE9C0"/><stop offset=".279" stop-color="#ABE8BE"/><stop offset=".498" stop-color="#A1E5B6"/><stop offset=".697" stop-color="#90E1A9"/><stop offset=".882" stop-color="#79DA98"/><stop offset="1" stop-color="#66D589"/></linearGradient><linearGradient id="paint60_linear" x1="80.56" y1="284.387" x2="80.56" y2="310.629" gradientUnits="userSpaceOnUse"><stop stop-color="#AEE9C0"/><stop offset=".279" stop-color="#ABE8BE"/><stop offset=".498" stop-color="#A1E5B6"/><stop offset=".697" stop-color="#90E1A9"/><stop offset=".882" stop-color="#79DA98"/><stop offset="1" stop-color="#66D589"/></linearGradient><linearGradient id="paint61_linear" x1="83.556" y1="326.598" x2="82.271" y2="311.175" gradientUnits="userSpaceOnUse"><stop stop-color="#BDD4FF"/><stop offset="1" stop-color="#EDF3FF"/></linearGradient><linearGradient id="paint62_linear" x1="192.662" y1="265.059" x2="173.519" y2="246.744" gradientUnits="userSpaceOnUse"><stop stop-color="#BF8E80"/><stop offset="1" stop-color="#855D53"/></linearGradient><linearGradient id="paint63_linear" x1="191.73" y1="241.66" x2="187.296" y2="232.984" gradientUnits="userSpaceOnUse"><stop stop-color="#BF8E80"/><stop offset="1" stop-color="#855D53"/></linearGradient><linearGradient id="paint64_linear" x1="206.644" y1="341.591" x2="206.644" y2="318.691" gradientUnits="userSpaceOnUse"><stop stop-color="#BDD4FF"/><stop offset="1" stop-color="#E7EFFF"/></linearGradient><linearGradient id="paint65_linear" x1="153.851" y1="335.462" x2="190.609" y2="262.459" gradientUnits="userSpaceOnUse"><stop stop-color="#F86E80"/><stop offset=".999" stop-color="#FFD4D8"/></linearGradient><linearGradient id="paint87_linear" x1="309.611" y1="330.887" x2="309.328" y2="309.306" gradientUnits="userSpaceOnUse"><stop stop-color="#77A7FF"/><stop offset="1" stop-color="#BDD4FF"/></linearGradient><linearGradient id="paint67_linear" x1="142.478" y1="407.133" x2="248.233" y2="407.133" gradientUnits="userSpaceOnUse"><stop stop-color="#233B67"/><stop offset=".998" stop-color="#565378"/></linearGradient><linearGradient id="paint68_linear" x1="176.27" y1="422.176" x2="204.803" y2="422.176" gradientUnits="userSpaceOnUse"><stop stop-color="#233B67"/><stop offset=".998" stop-color="#565378"/></linearGradient><linearGradient id="paint69_linear" x1="38.233" y1="451.145" x2="38.575" y2="451.145" gradientUnits="userSpaceOnUse"><stop stop-color="#BDD4FF"/><stop offset="1" stop-color="#E7EFFF"/></linearGradient><linearGradient id="paint85_linear" x1="175.495" y1="252.894" x2="151.203" y2="242.097" gradientUnits="userSpaceOnUse"><stop stop-color="#0E1B33"/><stop offset=".239" stop-color="#1C2538"/><stop offset=".698" stop-color="#313441"/><stop offset=".998" stop-color="#393944"/></linearGradient><linearGradient id="paint84_linear" x1="169.016" y1="221.677" x2="175.545" y2="219.131" gradientUnits="userSpaceOnUse"><stop stop-color="#4687FF"/><stop offset=".999" stop-color="#77A7FF"/></linearGradient><linearGradient id="paint72_linear" x1="38.232" y1="451.145" x2="38.575" y2="451.145" gradientUnits="userSpaceOnUse"><stop stop-color="#BDD4FF"/><stop offset="1" stop-color="#E7EFFF"/></linearGradient><linearGradient id="paint73_linear" x1="169.131" y1="502.065" x2="169.131" y2="498.981" gradientUnits="userSpaceOnUse"><stop stop-color="#BDD4FF"/><stop offset="1" stop-color="#E7EFFF"/></linearGradient><linearGradient id="paint74_linear" x1="38.232" y1="451.145" x2="38.575" y2="451.145" gradientUnits="userSpaceOnUse"><stop stop-color="#BDD4FF"/><stop offset="1" stop-color="#E7EFFF"/></linearGradient><linearGradient id="paint75_linear" x1="267.322" y1="328.97" x2="269.307" y2="298.587" gradientUnits="userSpaceOnUse"><stop stop-color="#77A7FF"/><stop offset="1" stop-color="#BDD4FF"/></linearGradient><linearGradient id="paint76_linear" x1="254.352" y1="348.13" x2="254.352" y2="318.709" gradientUnits="userSpaceOnUse"><stop stop-color="#77A7FF"/><stop offset="1" stop-color="#BDD4FF"/></linearGradient><linearGradient id="paint77_linear" x1="266.1" y1="338.772" x2="266.288" y2="318.124" gradientUnits="userSpaceOnUse"><stop stop-color="#77A7FF"/><stop offset="1" stop-color="#BDD4FF"/></linearGradient><linearGradient id="paint78_linear" x1="266.87" y1="326.534" x2="269.555" y2="297.002" gradientUnits="userSpaceOnUse"><stop stop-color="#BDD4FF"/><stop offset="1" stop-color="#EDF3FF"/></linearGradient><linearGradient id="paint79_linear" x1="153.528" y1="374.139" x2="128.851" y2="331.34" gradientUnits="userSpaceOnUse"><stop stop-color="#BDD4FF"/><stop offset="1" stop-color="#E7EFFF"/></linearGradient><linearGradient id="paint80_linear" x1="252.625" y1="314.025" x2="249.742" y2="318.214" gradientUnits="userSpaceOnUse"><stop stop-color="#BF8E80"/><stop offset="1" stop-color="#855D53"/></linearGradient><linearGradient id="paint81_linear" x1="244.4" y1="319.288" x2="241.626" y2="327.177" gradientUnits="userSpaceOnUse"><stop stop-color="#BF8E80"/><stop offset="1" stop-color="#855D53"/></linearGradient><linearGradient id="paint82_linear" x1="176.224" y1="346.727" x2="212.983" y2="273.724" gradientUnits="userSpaceOnUse"><stop stop-color="#F86E80"/><stop offset=".999" stop-color="#FFD4D8"/></linearGradient><linearGradient id="paint83_linear" x1="171.261" y1="250.966" x2="182.85" y2="237.317" gradientUnits="userSpaceOnUse"><stop stop-color="#0E1B33"/><stop offset=".239" stop-color="#1C2538"/><stop offset=".698" stop-color="#313441"/><stop offset=".998" stop-color="#393944"/></linearGradient><radialGradient id="paint71_radial" cx="0" cy="0" r="1" gradientUnits="userSpaceOnUse" gradientTransform="translate(240.074 279.403) scale(39.0829)"><stop stop-color="#fff"/><stop offset="1" stop-color="#fff" stop-opacity="0"/></radialGradient><radialGradient id="paint70_radial" cx="0" cy="0" r="1" gradientUnits="userSpaceOnUse" gradientTransform="translate(240.759 279.403) scale(39.0829)"><stop stop-color="#fff"/><stop offset="1" stop-color="#fff" stop-opacity="0"/></radialGradient><radialGradient id="paint86_radial" cx="0" cy="0" r="1" gradientUnits="userSpaceOnUse" gradientTransform="translate(250.944 256.203) scale(60.7468)"><stop stop-color="#fff"/><stop offset="1" stop-color="#fff" stop-opacity="0"/></radialGradient><radialGradient id="paint66_radial" cx="0" cy="0" r="1" gradientUnits="userSpaceOnUse" gradientTransform="translate(181.154 305.805) scale(46.2953)"><stop stop-color="#F86E80"/><stop offset=".999" stop-color="#FFD4D8" stop-opacity="0"/></radialGradient><radialGradient id="paint51_radial" cx="0" cy="0" r="1" gradientUnits="userSpaceOnUse" gradientTransform="matrix(149.038 0 0 15.1893 190.35 515.993)"><stop offset="0" stop-color="#4873C4" stop-opacity=".9"/><stop offset="1" stop-color="#233B67" stop-opacity="0"/></radialGradient><radialGradient id="paint39_radial" cx="0" cy="0" r="1" gradientUnits="userSpaceOnUse" gradientTransform="matrix(-120.493 0 0 -29.3976 434.512 524.79)"><stop offset=".435" stop-color="#305EB1" stop-opacity=".3"/><stop offset=".519" stop-color="#3461B2" stop-opacity=".255"/><stop offset=".598" stop-color="#3F6AB7" stop-opacity=".213"/><stop offset=".675" stop-color="#5279BE" stop-opacity=".172"/><stop offset=".751" stop-color="#6D8DC8" stop-opacity=".132"/><stop offset=".826" stop-color="#8FA8D5" stop-opacity=".092"/><stop offset=".9" stop-color="#B9C9E5" stop-opacity=".053"/><stop offset=".973" stop-color="#EBEFF7" stop-opacity=".014"/><stop offset="1" stop-color="#fff" stop-opacity="0"/></radialGradient><radialGradient id="paint18_radial" cx="0" cy="0" r="1" gradientUnits="userSpaceOnUse" gradientTransform="matrix(-183.023 0 0 -16.8824 208.993 494.495)"><stop stop-color="#305EB1" stop-opacity=".3"/><stop offset=".149" stop-color="#3461B2" stop-opacity=".255"/><stop offset=".289" stop-color="#3F6AB7" stop-opacity=".213"/><stop offset=".425" stop-color="#5279BE" stop-opacity=".172"/><stop offset=".56" stop-color="#6D8DC8" stop-opacity=".132"/><stop offset=".692" stop-color="#8FA8D5" stop-opacity=".092"/><stop offset=".824" stop-color="#B9C9E5" stop-opacity=".053"/><stop offset=".952" stop-color="#EBEFF7" stop-opacity=".014"/><stop offset="1" stop-color="#fff" stop-opacity="0"/></radialGradient><clipPath id="clip0"><path fill="#fff" d="M0 0h555v555H0z"/></clipPath></defs></svg>