<svg width="184" height="184" viewBox="0 0 184 184" fill="none" xmlns="http://www.w3.org/2000/svg"><g clip-path="url(#clip0_792_21655)"><path d="M6.067 73.202S7.227 25.43 54.57 17.44c47.343-7.99 79.634-23.075 95.813-9.051 16.178 14.024 30.898 39.75 21.383 66.14-9.515 26.423-32.357 42.602-51.055 53.675-18.699 11.073-60.306 22.213-84.342 12.532-21.748-8.752-32.656-20.555-33.153-33.319-.564-14.919 2.851-34.214 2.851-34.214z" fill="#E7EFFF"/><path fill-rule="evenodd" clip-rule="evenodd" d="M151.41 100.52H28.777c-2.32 0-4.21-1.757-4.21-3.879V30.7s4.409-4.21 9.614-6.83c7.725-3.846 13.924-5.105 13.924-5.105h103.339c2.32 0 4.21 1.757 4.21 3.879v73.964c-.033 2.188-1.89 3.912-4.244 3.912z" fill="url(#paint0_linear_792_21655)"/><path d="M140.337 47.442H38.127a2.604 2.604 0 01-2.62-2.619V37.63c0-1.459 1.16-2.62 2.62-2.62h102.21a2.603 2.603 0 012.619 2.62v7.194c0 1.459-1.16 2.62-2.619 2.62zm0 17.738H38.127a2.604 2.604 0 01-2.62-2.62v-7.194c0-1.459 1.16-2.62 2.62-2.62h102.21a2.603 2.603 0 012.619 2.62v7.194c0 1.459-1.16 2.62-2.619 2.62zm0 17.736H38.127a2.604 2.604 0 01-2.62-2.62v-7.193c0-1.459 1.16-2.62 2.62-2.62h102.21a2.603 2.603 0 012.619 2.62v7.194a2.603 2.603 0 01-2.619 2.619z" fill="#565378"/><path d="M90.11 34.579c-13.593 0-24.6 11.007-24.6 24.6 0 13.592 11.007 24.599 24.6 24.599 13.593 0 24.6-11.007 24.6-24.6 0-13.592-11.04-24.6-24.6-24.6zM71.876 59.145c0-10.078 8.156-18.234 18.234-18.234 3.713 0 7.161 1.127 10.046 3.017l-23.54 27.45a18.05 18.05 0 01-4.74-12.233zM90.11 77.38c-3.083 0-5.967-.762-8.487-2.088l23.141-26.987a18.1 18.1 0 013.58 10.841c-.033 10.079-8.188 18.234-18.234 18.234z" fill="url(#paint1_linear_792_21655)"/><path d="M88.95 116.566s21.317-17.935 25.395-26.058c4.111-8.122 33.352-24.533 43.497-5.702 10.145 18.831-31.064 33.683-31.064 33.683l-31.662 4.31-6.166-6.233z" fill="url(#paint2_linear_792_21655)"/><path d="M157.875 84.806l1.989 4.044-17.703 31.065-37.695 2.851 34.147-29.208 19.262-8.752z" fill="url(#paint3_linear_792_21655)"/><path d="M46.017 153.599c.298.165 8.95 5.437 9.316 3.613.331-1.823-4.542-6.233-5.172-6.133-.663.166-4.144 2.52-4.144 2.52z" fill="url(#paint4_linear_792_21655)"/><path d="M48.934 151.112l-4.31 7.426s2.752 4.708 5.935 4.211c3.182-.497 2.055-2.387 2.055-2.387l3.017-6.034-6.697-3.216z" fill="url(#paint5_linear_792_21655)"/><path d="M42.967 119.119l-9.88 5.603 2.52 6.664 8.221-3.514-.861-8.753z" fill="url(#paint6_linear_792_21655)"/><path d="M132.082 86.729l9.913-1.559.862-5.669-9.018 2.52-1.757 4.708z" fill="url(#paint7_linear_792_21655)"/><path d="M120.711 76.352l6.1 3.348-1.127 6.133-8.123-4.442c-.033 0 2.221-4.41 3.15-5.04z" fill="url(#paint8_linear_792_21655)"/><path d="M142.923 78.54s10.311-2.818 12.996-3.017c2.719-.199 5.238-.199 7.46 2.221 2.221 2.42-22.147 8.056-22.147 8.056s-.696-6.2 1.691-7.26z" fill="url(#paint9_linear_792_21655)"/><path d="M120.114 88.486c-2.586-1.061-3.813-4.244-4.774-5.371a43135.31 43135.31 0 01-11.239-13.294s-3.017 2.022-1.625 6.1c0 0 8.256 19.825 8.885 24.202.597 4.376 12.134-10.245 8.753-11.637z" fill="url(#paint10_linear_792_21655)"/><path d="M98.233 114.312s11.404-15.118 15.35-19.76c3.945-4.64 6.531-6.033 6.531-6.033s5.437 1.127 9.747 2.122l4.873-.995 6.399 10.874s-3.846 5.67-9.051 14.555c-4.509 7.658-4.84 8.619-10.907 7.094l-22.942-7.857z" fill="url(#paint11_linear_792_21655)"/><path d="M134.734 89.646s19.461-10.94 22.213-12.333c2.752-1.392 5.305-1.094 6.896.962 1.591 2.022-1.194 5.835-4.409 8.454-3.216 2.652-17.97 13.128-18.334 13.791-.332.63-6.366-10.874-6.366-10.874z" fill="url(#paint12_linear_792_21655)"/><path d="M102.609 71.843s1.359-3.481 5.039-3.083c3.68.397 14.322 7.956 14.322 7.956s-2.884 1.293-3.481 5.67l-10.774-4.476s-6.167-3.15-5.106-6.067z" fill="url(#paint13_linear_792_21655)"/><path d="M109.439 117.826c-.498-.165-35.176-13.99-39.287-13.195-6.83 1.326-28.445 13.328-28.677 13.825-.233.497-2.686 10.642 0 12.565l26.588-10.476 24.633 7.128 16.743-9.847z" fill="url(#paint14_linear_792_21655)"/><path d="M57.222 122.534c-2.022 4.277-11.239 31.065-11.239 31.065s3.614-1.26 9.317 3.613l15.184-24.865c.397-.663 3.547-2.188 4.31-2.088l12.432 1.691 5.404-4.244s-23.903-10.907-29.11-10.576c-4.84.332-6.299 5.404-6.299 5.404z" fill="url(#paint15_linear_792_21655)"/><path d="M136.823 85.005s-.995.663-1.989 1.226c-2.056 1.16-1.028 1.658-1.923.763-1.326-1.393.398-1.127.398-1.127s.663-.895 1.16-1.061c.498.033 1.989.63 2.354.199z" fill="url(#paint16_radial_792_21655)"/><path d="M132.944 89.281l1.426-6.299-7.46-.033-3.216 5.901c-.795 1.327.133 2.719 1.592 3.15 1.16.332 2.486.497 4.409.199 1.094-.166 2.884-.365 3.249-2.918z" fill="url(#paint17_linear_792_21655)"/><path d="M128.734 63.389s1.226 1.591 10.94 4.708c9.714 3.15 3.747 13.526.498 15.184-.664.331-3.382 1.89-3.382 1.89l-1.459-2.189c.166-.464 1.26-1.458 1.26-1.458l-.961-.431c-.398-1.956 1.392-5.305 1.392-5.305l-7.227-3.216c-.763-.331-1.492-.829-2.056-1.492a4.2 4.2 0 01-.729-1.293c-.962-3.05 1.724-6.398 1.724-6.398z" fill="url(#paint18_radial_792_21655)"/><path d="M137.022 75.788s-1.757 3.382-1.392 5.305l.364.198s1.426-1.093 2.454.398c.364.498-.067 1.691-.067 1.691l-.398.862c-.431.895-1.193 1.625-2.155 1.923-.331.1-.629.166-.828.066-.465-.1-.862-.729-.929-.795l-.729.961a2.195 2.195 0 01-1.492.829c-.895.1-1.79.166-2.818.232-2.586.166-5.238-.365-5.636-1.624-1.326-3.979 2.884-12.135 4.277-14.72.53.63 1.26 1.127 2.055 1.491l7.294 3.183z" fill="url(#paint19_linear_792_21655)"/><path d="M38.425 130.657c.066-.067.099-.166.066-.233-.1-.298-.464-.895-1.26-1.259-1.094-.464-2.354-1.161-2.188-2.885.166-1.724.53-1.492 1.193-1.79.664-.298.862-.995.962-2.42 0 0-9.416-6.796-12.068-11.836 0 0-.696-2.155-4.41.1 0 0-.497 2.188 5.206 16.444 0 0 3.249 8.188 3.78 8.321.497.199 5.237-2.188 8.719-4.442z" fill="url(#paint20_linear_792_21655)"/><path d="M152.969 97.305c-4.542 9.117-12.366 16.245-21.915 19.792-3.348 1.227-6.597 2.122-9.084 2.155-15.648.066-16.775-6.399-32.689 2.453-12.432 6.929-20.422 10.808-20.422 10.808L57.62 153.466c.431 5.868 8.554 13.129 16.577 14.322 4.177.63 11.57-.497 14.753 0 14.554 2.255 52.747 3.15 65.378-.862 4.641-1.492 15.98-2.453 18.068-12.598 3.481-16.809-8.155-24.964-8.155-31.927 0-24.864-3.15-32.92-5.073-34.943 0 .033-3.415 4.244-6.199 9.847z" fill="url(#paint21_linear_792_21655)"/><path d="M79.468 167.821c0-4.177-15.417-7.592-34.447-7.592s-34.446 3.382-34.446 7.592c0 4.178 15.416 7.592 34.447 7.592 19.03-.033 34.446-3.414 34.446-7.592z" fill="url(#paint22_radial_792_21655)" opacity=".74"/><path d="M122.004 168.252c0-3.01-18.176-5.47-40.613-5.47s-40.613 2.437-40.613 5.47c0 3.01 18.176 5.471 40.613 5.471 22.437-.024 40.613-2.461 40.613-5.471z" fill="url(#paint23_radial_792_21655)" opacity=".74"/><path d="M144.548 168.915c0-3.01-18.176-5.47-40.613-5.47-22.436 0-40.613 2.437-40.613 5.47 0 3.01 18.177 5.471 40.613 5.471 22.437-.024 40.613-2.461 40.613-5.471z" fill="url(#paint24_radial_792_21655)" opacity=".74"/><path d="M170.407 169.91c0-3.01-18.176-5.47-40.612-5.47-22.437 0-40.613 2.436-40.613 5.47 0 3.01 18.176 5.47 40.613 5.47 22.436-.024 40.612-2.46 40.612-5.47z" fill="url(#paint25_radial_792_21655)" opacity=".74"/><path d="M121.175 128.336l-1.492 5.47c2.055 9.847 5.006 28.313 10.078 35.971l6.366-.431c18.831-.331 11.902-21.616 11.902-21.616l-26.854-19.394z" fill="url(#paint26_linear_792_21655)" opacity=".74"/><path opacity=".4" d="M184.961 174.651c.067-2.122-17.14-4.277-38.391-4.841-21.251-.563-38.524.697-38.59 2.818-.067 2.122 17.14 4.277 38.391 4.841 21.251.563 38.557-.696 38.59-2.818z" fill="url(#paint27_radial_792_21655)"/><path d="M127.275 127.01c-1.625.497-3.382-.299-4.443-.133l-1.657 1.426s8.918 29.208 10.509 33.153c1.625 3.945 6.366 6.796 6.366 6.796l1.16.597 11.239 4.874 7.791-5.172c7.791-5.139 6.365-13.228 6.365-13.228l-.762-29.175c-13.56-.133-22.876-7.659-22.876-7.659-4.21 4.808-9.581 7.261-13.692 8.521z" fill="url(#paint28_linear_792_21655)"/><path d="M122.832 126.91s8.919 29.208 10.51 33.153c1.624 3.946 6.365 6.797 6.365 6.797l1.161.563 11.239 4.874 7.791-5.139c7.791-5.139 6.365-13.228 6.365-13.228l-.763-29.142c-13.559-.132-22.875-7.658-22.875-7.658-7.924 8.819-19.793 9.78-19.793 9.78z" fill="url(#paint29_linear_792_21655)"/><path d="M142.99 120.711a43.356 43.356 0 0019.891 6.697l.697 26.622v.198l.033.199c.033.232.961 6.432-5.172 10.477l-6.2 4.111-9.813-4.244-.995-.497c-1.193-.729-4.144-2.984-5.138-5.437-1.128-2.752-6.034-18.964-9.25-29.54 5.934-1.392 11.471-4.376 15.947-8.586zm-20.158 6.199s8.919 29.208 10.51 33.153c1.624 3.946 6.365 6.797 6.365 6.797l1.161.563 11.239 4.874 7.791-5.139c7.791-5.139 6.365-13.228 6.365-13.228l-.763-29.142h-.596c-13.228-.331-22.246-7.625-22.246-7.625-7.957 8.786-19.826 9.747-19.826 9.747z" fill="url(#paint30_linear_792_21655)"/><path d="M150.283 141.697l-.63 3.249-.199-2.387-2.685-3.68-1.227 6.166-.199-2.354-.629-.862-1.89 8.521a16.11 16.11 0 01-3.249-6.3c-1.558-5.967.994-10.907 5.669-11.006 4.675-.1 9.714 4.641 11.272 10.609a11.85 11.85 0 01.033 6.365l-6.266-8.321z" fill="#fff"/><path d="M53.609 158.538c-.034-.099-.1-.165-.2-.165-.298 0-.994.099-1.624.729-.829.862-1.923 1.79-3.48 1.028-1.56-.796-1.194-1.028-1.26-1.757-.034-.697-.63-1.194-1.924-1.758 0 0-9.713 6.366-15.35 7.029 0 0-2.254-.133-1.491 4.144 0 0 1.856 1.26 17.24 1.028 0 0 8.818-.133 9.116-.531.365-.431-.165-5.702-1.027-9.747z" fill="url(#paint31_linear_792_21655)"/></g><defs><linearGradient id="paint0_linear_792_21655" x1="87.666" y1="113.902" x2="92.709" y2="9.961" gradientUnits="userSpaceOnUse"><stop stop-color="#233B67"/><stop offset=".998" stop-color="#565378"/></linearGradient><linearGradient id="paint17_linear_792_21655" x1="124.994" y1="86.578" x2="133.301" y2="88.171" gradientUnits="userSpaceOnUse"><stop stop-color="#BF8E80"/><stop offset="1" stop-color="#855D53"/></linearGradient><linearGradient id="paint3_linear_792_21655" x1="104.455" y1="103.779" x2="159.855" y2="103.779" gradientUnits="userSpaceOnUse"><stop stop-color="#77A7FF"/><stop offset="1" stop-color="#BDD4FF"/></linearGradient><linearGradient id="paint4_linear_792_21655" x1="50.688" y1="151.757" x2="50.639" y2="160.037" gradientUnits="userSpaceOnUse"><stop stop-color="#233B67"/><stop offset=".998" stop-color="#565378"/></linearGradient><linearGradient id="paint5_linear_792_21655" x1="46.758" y1="155.894" x2="52.503" y2="158.391" gradientUnits="userSpaceOnUse"><stop stop-color="#BF8E80"/><stop offset="1" stop-color="#855D53"/></linearGradient><linearGradient id="paint6_linear_792_21655" x1="37.133" y1="121.209" x2="40.832" y2="128.129" gradientUnits="userSpaceOnUse"><stop stop-color="#BF8E80"/><stop offset="1" stop-color="#855D53"/></linearGradient><linearGradient id="paint7_linear_792_21655" x1="138.194" y1="88.037" x2="137.33" y2="82.172" gradientUnits="userSpaceOnUse"><stop stop-color="#BF8E80"/><stop offset="1" stop-color="#855D53"/></linearGradient><linearGradient id="paint8_linear_792_21655" x1="124.58" y1="84.154" x2="121.218" y2="79.11" gradientUnits="userSpaceOnUse"><stop stop-color="#BF8E80"/><stop offset="1" stop-color="#855D53"/></linearGradient><linearGradient id="paint9_linear_792_21655" x1="153.175" y1="87.275" x2="151.922" y2="78.763" gradientUnits="userSpaceOnUse"><stop stop-color="#E8E8E9"/><stop offset="1" stop-color="#fff"/></linearGradient><linearGradient id="paint10_linear_792_21655" x1="103.899" y1="89.415" x2="108.645" y2="85.216" gradientUnits="userSpaceOnUse"><stop stop-color="#E8E8E9"/><stop offset="1" stop-color="#fff"/></linearGradient><linearGradient id="paint11_linear_792_21655" x1="122.44" y1="112.481" x2="115.507" y2="99.682" gradientUnits="userSpaceOnUse"><stop stop-color="#E8E8E9"/><stop offset="1" stop-color="#fff"/></linearGradient><linearGradient id="paint12_linear_792_21655" x1="154.686" y1="93.862" x2="148.238" y2="81.957" gradientUnits="userSpaceOnUse"><stop stop-color="#E8E8E9"/><stop offset="1" stop-color="#fff"/></linearGradient><linearGradient id="paint2_linear_792_21655" x1="88.953" y1="99.433" x2="159.479" y2="99.433" gradientUnits="userSpaceOnUse"><stop stop-color="#77A7FF"/><stop offset="1" stop-color="#BDD4FF"/></linearGradient><linearGradient id="paint14_linear_792_21655" x1="71.988" y1="130.593" x2="76.072" y2="115.857" gradientUnits="userSpaceOnUse"><stop stop-color="#233B67"/><stop offset=".998" stop-color="#565378"/></linearGradient><linearGradient id="paint15_linear_792_21655" x1="76.272" y1="128.946" x2="51.345" y2="140.762" gradientUnits="userSpaceOnUse"><stop stop-color="#233B67"/><stop offset=".998" stop-color="#565378"/></linearGradient><linearGradient id="paint1_linear_792_21655" x1="117.623" y1="76.103" x2="24.492" y2="18.733" gradientUnits="userSpaceOnUse"><stop stop-color="#F86E80"/><stop offset=".999" stop-color="#FFD4D8"/></linearGradient><linearGradient id="paint13_linear_792_21655" x1="114.393" y1="81.844" x2="112.435" y2="75.498" gradientUnits="userSpaceOnUse"><stop stop-color="#E8E8E9"/><stop offset="1" stop-color="#fff"/></linearGradient><linearGradient id="paint19_linear_792_21655" x1="122.752" y1="77.28" x2="138.89" y2="85.364" gradientUnits="userSpaceOnUse"><stop stop-color="#BF8E80"/><stop offset="1" stop-color="#855D53"/></linearGradient><linearGradient id="paint20_linear_792_21655" x1="31.443" y1="119.593" x2="25.506" y2="122.805" gradientUnits="userSpaceOnUse"><stop stop-color="#fff"/><stop offset=".998" stop-color="#E8E8E9"/></linearGradient><linearGradient id="paint21_linear_792_21655" x1="57.602" y1="128.607" x2="173.054" y2="128.607" gradientUnits="userSpaceOnUse"><stop stop-color="#77A7FF"/><stop offset="1" stop-color="#BDD4FF"/></linearGradient><linearGradient id="paint26_linear_792_21655" x1="128.419" y1="149.365" x2="123.496" y2="150.515" gradientUnits="userSpaceOnUse"><stop stop-color="#4873C4" stop-opacity=".9"/><stop offset="1" stop-color="#fff" stop-opacity="0"/></linearGradient><linearGradient id="paint28_linear_792_21655" x1="-15758" y1="25810.7" x2="-11546" y2="19012" gradientUnits="userSpaceOnUse"><stop stop-color="#77A7FF"/><stop offset="1" stop-color="#BDD4FF"/></linearGradient><linearGradient id="paint29_linear_792_21655" x1="7535.23" y1="23932.5" x2="5857.38" y2="18528.1" gradientUnits="userSpaceOnUse"><stop stop-color="#77A7FF"/><stop offset="1" stop-color="#BDD4FF"/></linearGradient><linearGradient id="paint30_linear_792_21655" x1="8780.37" y1="-19596" x2="5063.96" y2="-11101.5" gradientUnits="userSpaceOnUse"><stop stop-color="#BDD4FF"/><stop offset="1" stop-color="#E7EFFF"/></linearGradient><linearGradient id="paint31_linear_792_21655" x1="40.771" y1="161.084" x2="41.647" y2="167.777" gradientUnits="userSpaceOnUse"><stop stop-color="#fff"/><stop offset=".998" stop-color="#E8E8E9"/></linearGradient><radialGradient id="paint25_radial_792_21655" cx="0" cy="0" r="1" gradientUnits="userSpaceOnUse" gradientTransform="matrix(-40.6018 0 0 -5.45858 129.789 169.96)"><stop stop-color="#4873C4" stop-opacity=".9"/><stop offset="1" stop-color="#fff" stop-opacity="0"/></radialGradient><radialGradient id="paint18_radial_792_21655" cx="0" cy="0" r="1" gradientUnits="userSpaceOnUse" gradientTransform="rotate(-156.416 72.23 17.345) scale(20.6993)"><stop stop-color="#393944"/><stop offset="1" stop-color="#0E1B33"/></radialGradient><radialGradient id="paint27_radial_792_21655" cx="0" cy="0" r="1" gradientUnits="userSpaceOnUse" gradientTransform="matrix(-38.4801 -1.0083 .1006 -3.83923 146.465 173.701)"><stop stop-color="#4873C4" stop-opacity=".9"/><stop offset="1" stop-color="#fff" stop-opacity="0"/></radialGradient><radialGradient id="paint16_radial_792_21655" cx="0" cy="0" r="1" gradientUnits="userSpaceOnUse" gradientTransform="rotate(-156.416 76.187 28.946) scale(1.8075)"><stop stop-color="#393944"/><stop offset="1" stop-color="#0E1B33"/></radialGradient><radialGradient id="paint22_radial_792_21655" cx="0" cy="0" r="1" gradientUnits="userSpaceOnUse" gradientTransform="matrix(-34.437 0 0 -7.57585 45.017 167.891)"><stop stop-color="#4873C4" stop-opacity=".9"/><stop offset="1" stop-color="#fff" stop-opacity="0"/></radialGradient><radialGradient id="paint23_radial_792_21655" cx="0" cy="0" r="1" gradientUnits="userSpaceOnUse" gradientTransform="matrix(-40.6018 0 0 -5.45858 81.386 168.302)"><stop stop-color="#4873C4" stop-opacity=".9"/><stop offset="1" stop-color="#fff" stop-opacity="0"/></radialGradient><radialGradient id="paint24_radial_792_21655" cx="0" cy="0" r="1" gradientUnits="userSpaceOnUse" gradientTransform="matrix(-40.6018 0 0 -5.45858 103.93 168.965)"><stop stop-color="#4873C4" stop-opacity=".9"/><stop offset="1" stop-color="#fff" stop-opacity="0"/></radialGradient><clipPath id="clip0_792_21655"><path d="M0 12C0 5.373 5.373 0 12 0h160c6.627 0 12 5.373 12 12v160c0 6.627-5.373 12-12 12H12c-6.627 0-12-5.373-12-12V12z" fill="#fff"/></clipPath></defs></svg>