<svg width="184" height="184" viewBox="0 0 184 184" fill="none" xmlns="http://www.w3.org/2000/svg"><g clip-path="url(#clip0_792_21656)"><path d="M184 133.939H0v50.16h184v-50.16z" fill="url(#paint0_radial_792_21656)"/><path d="M181.558 71.606L91.583 91.914a3.15 3.15 0 01-3.772-2.362L72.86 24.257a3.15 3.15 0 012.363-3.773L165.234.177a3.15 3.15 0 013.772 2.362l14.914 65.295a3.15 3.15 0 01-2.362 3.772z" fill="url(#paint1_radial_792_21656)"/><path d="M169.606 5.218l-96.11 21.718-.705-3.102c-.352-1.481.564-2.927 2.045-3.28L165.657.072c1.481-.353 2.926.564 3.279 2.045l.67 3.102z" fill="url(#paint2_linear_792_21656)"/><path d="M76.493 24.539a1.093 1.093 0 100-2.186 1.093 1.093 0 000 2.186z" fill="#fff"/><path d="M79.984 23.763a1.093 1.093 0 100-2.186 1.093 1.093 0 000 2.186z" fill="url(#paint3_linear_792_21656)"/><path d="M83.474 22.952a1.093 1.093 0 100-2.186 1.093 1.093 0 000 2.186z" fill="url(#paint4_linear_792_21656)"/><path d="M109.387 50.84l-20.625 4.725c-.951.211-1.939-.388-2.15-1.34L81.887 33.6c-.211-.952.388-1.94 1.34-2.15l20.625-4.725c.952-.212 1.939.388 2.151 1.34l4.724 20.625c.212.987-.388 1.939-1.34 2.15zm29.44-6.734l-20.625 4.725c-.952.211-1.939-.388-2.151-1.34l-4.724-20.625c-.212-.952.387-1.94 1.339-2.15l20.625-4.725c.952-.212 1.94.388 2.151 1.34l4.724 20.625c.212.987-.387 1.939-1.339 2.15zm29.404-6.699l-20.625 4.725c-.952.211-1.939-.388-2.151-1.34l-4.724-20.625c-.212-.952.387-1.94 1.339-2.15l20.625-4.725c.952-.211 1.94.388 2.151 1.34l4.725 20.625c.246.952-.353 1.904-1.34 2.15zm2.045 10.26L91.406 65.72a2.153 2.153 0 01-2.538-1.587 2.153 2.153 0 011.587-2.539l78.869-18.05a2.152 2.152 0 012.538 1.586 2.152 2.152 0 01-1.586 2.538zm1.657 7.298l-78.87 18.052a2.153 2.153 0 01-2.538-1.587 2.153 2.153 0 011.587-2.538L170.98 50.84a2.152 2.152 0 012.538 1.587c.282 1.128-.458 2.291-1.586 2.538z" fill="#77A7FF"/><path d="M90.807 122.941L2.278 97.063c-1.657-.494-2.644-2.221-2.15-3.914l18.615-64.343c.494-1.657 2.221-2.644 3.913-2.15l88.53 25.913c1.657.494 2.644 2.221 2.15 3.913L94.721 120.79a3.148 3.148 0 01-3.914 2.151z" fill="url(#paint5_radial_792_21656)"/><path d="M112.561 59.127L18.002 31.45l.882-3.067c.423-1.445 1.94-2.292 3.385-1.869l89.34 26.16c1.445.424 2.291 1.94 1.868 3.385l-.916 3.068z" fill="url(#paint6_linear_792_21656)"/><path d="M22.304 30.957a1.093 1.093 0 100-2.186 1.093 1.093 0 000 2.186z" fill="#fff"/><path d="M25.724 31.944a1.093 1.093 0 100-2.186 1.093 1.093 0 000 2.186z" fill="url(#paint7_linear_792_21656)"/><path d="M29.179 32.966a1.093 1.093 0 100-2.186 1.093 1.093 0 000 2.186z" fill="url(#paint8_linear_792_21656)"/><path opacity=".54" d="M50.227 58.598l-31.59-9.167a1.158 1.158 0 01-.81-1.445l2.22-7.616a1.158 1.158 0 011.446-.81l31.59 9.166c.635.176.987.811.81 1.446l-2.22 7.615a1.173 1.173 0 01-1.446.81z" fill="#E7EFFF"/><path d="M98.211 84.9L16.663 61.276a2.568 2.568 0 01-1.763-3.173 2.568 2.568 0 013.173-1.762l81.548 23.621a2.568 2.568 0 011.763 3.174 2.552 2.552 0 01-3.173 1.762zm-2.538 8.778L14.124 70.056a2.568 2.568 0 011.41-4.936l81.549 23.622a2.568 2.568 0 01-1.41 4.936zm-2.539 8.814L11.586 78.87a2.568 2.568 0 011.41-4.936l81.549 23.622a2.568 2.568 0 01-1.41 4.936z" fill="#77A7FF"/><path d="M154.269 156.684H32.951a3.664 3.664 0 01-3.666-3.667V75.488a3.664 3.664 0 013.666-3.666H154.27a3.664 3.664 0 013.667 3.666v77.529c-.035 2.045-1.657 3.667-3.667 3.667z" fill="url(#paint9_linear_792_21656)"/><path d="M157.901 78.661H29.285v-3.666a3.145 3.145 0 013.137-3.138h122.306a3.144 3.144 0 013.137 3.138v3.666h.036z" fill="url(#paint10_linear_792_21656)"/><path d="M33.586 76.793a1.27 1.27 0 100-2.539 1.27 1.27 0 000 2.539z" fill="#E7EFFF"/><path d="M37.711 76.793a1.27 1.27 0 100-2.539 1.27 1.27 0 000 2.539z" fill="url(#paint11_linear_792_21656)"/><path d="M41.871 76.793a1.27 1.27 0 100-2.539 1.27 1.27 0 000 2.539z" fill="url(#paint12_linear_792_21656)"/><path d="M147.888 96.43H38.558a3.739 3.739 0 01-3.738-3.737 3.74 3.74 0 013.737-3.737h109.331a3.739 3.739 0 013.737 3.737 3.717 3.717 0 01-3.737 3.738z" fill="url(#paint13_linear_792_21656)"/><path d="M99.903 146.565h-61.98a3.107 3.107 0 01-3.103-3.102V108.7a3.108 3.108 0 013.102-3.103h61.981a3.107 3.107 0 013.103 3.103v34.763a3.085 3.085 0 01-3.103 3.102z" fill="url(#paint14_linear_792_21656)"/><path d="M149.122 110.639h-39.875a2.513 2.513 0 01-2.504-2.503 2.513 2.513 0 012.504-2.503h39.875a2.512 2.512 0 012.503 2.503 2.512 2.512 0 01-2.503 2.503z" fill="url(#paint15_linear_792_21656)"/><path d="M149.122 120.405h-39.875a2.513 2.513 0 01-2.504-2.503 2.513 2.513 0 012.504-2.503h39.875a2.512 2.512 0 012.503 2.503 2.49 2.49 0 01-2.503 2.503z" fill="url(#paint16_linear_792_21656)"/><path d="M149.122 130.206h-39.875a2.513 2.513 0 01-2.504-2.503 2.513 2.513 0 012.504-2.503h39.875a2.512 2.512 0 012.503 2.503 2.512 2.512 0 01-2.503 2.503z" fill="url(#paint17_linear_792_21656)"/><path d="M91.125 52.043h4.97c.212.035.424.105.635.14 5.923.388 11.565 1.94 16.747 4.83 13.962 7.828 21.542 19.744 22.529 35.716.459 7.65-1.163 14.984-4.936 21.682-7.791 13.927-19.743 21.472-35.68 22.459-7.65.458-14.948-1.199-21.682-4.901-11.987-6.593-19.285-16.641-21.86-30.074-.316-1.621-.458-3.278-.67-4.9v-4.972c.036-.246.142-.458.142-.705.423-5.923 1.974-11.528 4.83-16.711 6.593-11.952 16.641-19.286 30.074-21.86 1.587-.352 3.243-.493 4.9-.704z" fill="url(#paint18_radial_792_21656)"/><path d="M93.593 124.636c16.648 0 30.144-13.496 30.144-30.144 0-16.649-13.496-30.145-30.144-30.145-16.649 0-30.145 13.496-30.145 30.145 0 16.648 13.496 30.144 30.145 30.144z" fill="#fff"/><path d="M91.548 59.623h4.09c.176.035.352.105.528.105 4.866.318 9.449 1.552 13.68 3.879 11.423 6.275 17.628 15.865 18.439 28.663.388 6.135-.952 12.023-4.019 17.417-6.382 11.176-16.148 17.241-29.193 18.016-6.275.388-12.234-.987-17.769-3.949-9.801-5.253-15.795-13.327-17.91-24.115-.247-1.304-.353-2.609-.564-3.949v-3.984c.035-.176.105-.388.105-.564.353-4.76 1.622-9.272 3.95-13.433 5.393-9.59 13.608-15.477 24.608-17.557 1.375-.212 2.715-.353 4.055-.53z" fill="url(#paint19_linear_792_21656)"/><path d="M94.51 124.636c16.005 0 28.98-12.628 28.98-28.205 0-15.578-12.975-28.206-28.98-28.206-16.007 0-28.982 12.628-28.982 28.206 0 15.577 12.975 28.205 28.981 28.205z" fill="#fff"/><path d="M91.618 60.716h3.949c.176.035.353.105.494.105 4.724.318 9.201 1.552 13.291 3.843 11.106 6.206 17.135 15.725 17.911 28.417.387 6.1-.952 11.917-3.914 17.241-6.205 11.07-15.689 17.099-28.381 17.875-6.1.388-11.917-.952-17.24-3.914-9.52-5.253-15.337-13.221-17.382-23.939-.247-1.27-.353-2.609-.53-3.913v-3.95c.036-.175.106-.387.106-.563.318-4.725 1.587-9.167 3.844-13.292 5.253-9.52 13.22-15.337 23.904-17.382 1.34-.246 2.644-.352 3.948-.528zm15.125 13.644c-8.497-5.888-21.718-5.641-30.426 3.385-9.132 9.448-8.039 22.705-2.82 29.897 11.07-11.106 22.176-22.211 33.246-33.282zm7.016 7.016l-33.282 33.282c8.744 5.923 21.648 5.465 30.25-3.243 8.85-8.956 8.638-21.965 3.032-30.039z" fill="url(#paint20_linear_792_21656)"/><path opacity=".54" d="M90.84 184.066c41.691 0 75.489-2.909 75.489-6.498 0-3.588-33.798-6.498-75.49-6.498-41.691 0-75.49 2.91-75.49 6.498 0 3.589 33.799 6.498 75.49 6.498z" fill="url(#paint21_radial_792_21656)"/></g><defs><linearGradient id="paint11_linear_792_21656" x1="37.865" y1="82.996" x2="37.624" y2="70.584" gradientUnits="userSpaceOnUse"><stop stop-color="#27AE56"/><stop offset=".999" stop-color="#D9E9DE"/></linearGradient><linearGradient id="paint14_linear_792_21656" x1="34.831" y1="126.108" x2="103.01" y2="126.108" gradientUnits="userSpaceOnUse"><stop stop-color="#BDD4FF"/><stop offset="1" stop-color="#E7EFFF"/></linearGradient><linearGradient id="paint3_linear_792_21656" x1="81.526" y1="28.929" x2="78.933" y2="18.526" gradientUnits="userSpaceOnUse"><stop stop-color="#27AE56"/><stop offset=".999" stop-color="#D9E9DE"/></linearGradient><linearGradient id="paint4_linear_792_21656" x1="84.712" y1="25.019" x2="81.947" y2="18.075" gradientUnits="userSpaceOnUse"><stop stop-color="#F86E80"/><stop offset=".999" stop-color="#FFD4D8"/></linearGradient><linearGradient id="paint6_linear_792_21656" x1="68.891" y1="65.538" x2="64.226" y2="32.198" gradientUnits="userSpaceOnUse"><stop stop-color="#BDD4FF"/><stop offset="1" stop-color="#E7EFFF"/></linearGradient><linearGradient id="paint7_linear_792_21656" x1="24.056" y1="37.103" x2="26.837" y2="26.749" gradientUnits="userSpaceOnUse"><stop stop-color="#27AE56"/><stop offset=".999" stop-color="#D9E9DE"/></linearGradient><linearGradient id="paint8_linear_792_21656" x1="28.739" y1="35.23" x2="29.691" y2="27.817" gradientUnits="userSpaceOnUse"><stop stop-color="#F86E80"/><stop offset=".999" stop-color="#FFD4D8"/></linearGradient><linearGradient id="paint9_linear_792_21656" x1="93.603" y1="76.062" x2="93.603" y2="136.248" gradientUnits="userSpaceOnUse"><stop stop-color="#77A7FF"/><stop offset="1" stop-color="#BDD4FF"/></linearGradient><linearGradient id="paint2_linear_792_21656" x1="120.895" y1="-24.033" x2="121.154" y2="12.983" gradientUnits="userSpaceOnUse"><stop stop-color="#BDD4FF"/><stop offset="1" stop-color="#E7EFFF"/></linearGradient><linearGradient id="paint12_linear_792_21656" x1="42.471" y1="79.405" x2="41.142" y2="70.852" gradientUnits="userSpaceOnUse"><stop stop-color="#F86E80"/><stop offset=".999" stop-color="#FFD4D8"/></linearGradient><linearGradient id="paint13_linear_792_21656" x1="34.831" y1="92.708" x2="151.622" y2="92.708" gradientUnits="userSpaceOnUse"><stop stop-color="#BDD4FF"/><stop offset="1" stop-color="#E7EFFF"/></linearGradient><linearGradient id="paint10_linear_792_21656" x1="93.603" y1="81.895" x2="93.603" y2="67.772" gradientUnits="userSpaceOnUse"><stop stop-color="#BDD4FF"/><stop offset="1" stop-color="#E7EFFF"/></linearGradient><linearGradient id="paint15_linear_792_21656" x1="106.743" y1="108.139" x2="151.622" y2="108.139" gradientUnits="userSpaceOnUse"><stop stop-color="#BDD4FF"/><stop offset="1" stop-color="#E7EFFF"/></linearGradient><linearGradient id="paint16_linear_792_21656" x1="106.743" y1="117.919" x2="151.622" y2="117.919" gradientUnits="userSpaceOnUse"><stop stop-color="#BDD4FF"/><stop offset="1" stop-color="#E7EFFF"/></linearGradient><linearGradient id="paint17_linear_792_21656" x1="106.743" y1="127.7" x2="151.622" y2="127.7" gradientUnits="userSpaceOnUse"><stop stop-color="#BDD4FF"/><stop offset="1" stop-color="#E7EFFF"/></linearGradient><linearGradient id="paint19_linear_792_21656" x1="93.678" y1="94.945" x2="90.071" y2="58.387" gradientUnits="userSpaceOnUse"><stop stop-color="#F86E80"/><stop offset=".999" stop-color="#FFD4D8"/></linearGradient><linearGradient id="paint20_linear_792_21656" x1="80.833" y1="116.813" x2="89.31" y2="101.979" gradientUnits="userSpaceOnUse"><stop stop-color="#FF3A60"/><stop offset="1" stop-color="#FF627D"/></linearGradient><radialGradient id="paint1_radial_792_21656" cx="0" cy="0" r="1" gradientUnits="userSpaceOnUse" gradientTransform="matrix(11.35754 -44.2918 78.35494 20.09218 109.11 70.624)"><stop stop-color="#77A7FF"/><stop offset="1" stop-color="#BDD4FF"/></radialGradient><radialGradient id="paint18_radial_792_21656" cx="0" cy="0" r="1" gradientUnits="userSpaceOnUse" gradientTransform="translate(93.603 94.489) scale(42.4618)"><stop offset=".561" stop-color="#4873C4" stop-opacity=".6"/><stop offset=".612" stop-color="#4E77C6" stop-opacity=".53"/><stop offset=".679" stop-color="#5E84CB" stop-opacity=".438"/><stop offset=".756" stop-color="#7A99D4" stop-opacity=".334"/><stop offset=".839" stop-color="#A0B6E0" stop-opacity=".221"/><stop offset=".926" stop-color="#D0DBF0" stop-opacity=".101"/><stop offset="1" stop-color="#fff" stop-opacity="0"/></radialGradient><radialGradient id="paint5_radial_792_21656" cx="0" cy="0" r="1" gradientUnits="userSpaceOnUse" gradientTransform="rotate(16.153 -235.229 237.296) scale(43.4701)"><stop stop-color="#77A7FF"/><stop offset="1" stop-color="#BDD4FF"/></radialGradient><radialGradient id="paint0_radial_792_21656" cx="0" cy="0" r="1" gradientUnits="userSpaceOnUse" gradientTransform="matrix(105.91553 .85688 -.68462 84.62333 86.06 125.145)"><stop stop-color="#BDD4FF" stop-opacity=".7"/><stop offset=".862" stop-color="#EDF3FF" stop-opacity="0"/></radialGradient><radialGradient id="paint21_radial_792_21656" cx="0" cy="0" r="1" gradientUnits="userSpaceOnUse" gradientTransform="matrix(-75.4804 0 0 -6.48236 90.83 177.552)"><stop offset=".002" stop-color="#4873C4" stop-opacity=".6"/><stop offset=".117" stop-color="#4D77C6" stop-opacity=".526"/><stop offset=".258" stop-color="#5C82CA" stop-opacity=".436"/><stop offset=".41" stop-color="#7495D2" stop-opacity=".338"/><stop offset=".572" stop-color="#97AFDD" stop-opacity=".234"/><stop offset=".74" stop-color="#C3D1EC" stop-opacity=".125"/><stop offset=".912" stop-color="#F8F9FD" stop-opacity=".014"/><stop offset=".935" stop-color="#fff" stop-opacity="0"/></radialGradient><clipPath id="clip0_792_21656"><path d="M0 12C0 5.373 5.373 0 12 0h160c6.627 0 12 5.373 12 12v160c0 6.627-5.373 12-12 12H12c-6.627 0-12-5.373-12-12V12z" fill="#fff"/></clipPath></defs></svg>